ply
format ascii 1.0
comment TextureFile TaylorSwift_Eras_Poster_.jpg
element vertex 5
property float x
property float y
property float z
property float nx
property float ny
property float nz
property uchar red
property uchar green
property uchar blue
property uchar alpha
property float texture_u
property float texture_v
element face 4
property list uchar int vertex_indices
end_header
128      0 128       0 1 0   255   0   0 255 	1 1
11.22922 0	71.26847 0 1 0     0 255   0 255	0.778392467	0.333333333 
-128     0 128       0 1 0     0   0 255 255 	1 0
128      0 -128      0 1 0   255 255 255 255 	0 1
-128     0 -128      0 1 0   255 255 255 255 	0 0
3 0 1 2 
3 0 3 1 
3 2 1 4 
3 4 1 3 
