ply
format ascii 1.0
comment TextureFile TaylorSwift_Eras_Poster.jpg
element vertex 210
property float x
property float y
property float z
property float nx
property float ny
property float nz
property float s
property float t
element face 192
property list uchar uint vertex_indices
end_header
87.599228 -108.371826 -0.000018 0.000000 0.000000 1.000000 0.923327 0.842185
78.772964 -89.157562 -0.000015 0.000000 0.000000 1.000000 0.848272 0.807707
54.175861 -92.133514 -0.000015 0.000000 0.000000 1.000000 0.859896 0.711624
59.368843 -109.582596 -0.000018 0.000000 0.000000 1.000000 0.928057 0.731909
69.931625 -70.069214 -0.000011 0.000000 0.000000 1.000000 0.773708 0.773170
48.822044 -75.147728 -0.000012 0.000000 0.000000 1.000000 0.793546 0.690711
61.529312 -50.772762 -0.000008 0.000000 0.000000 1.000000 0.698331 0.740349
43.841499 -57.979992 -0.000009 0.000000 0.000000 1.000000 0.726484 0.671256
30.121771 -94.831879 -0.000015 0.000000 0.000000 1.000000 0.870437 0.617663
31.296576 -110.736969 -0.000018 0.000000 0.000000 1.000000 0.932566 0.622252
28.659872 -79.736916 -0.000013 0.000000 0.000000 1.000000 0.811472 0.611953
27.251196 -64.740021 -0.000011 0.000000 0.000000 1.000000 0.752891 0.606450
25.917408 2.938242 0.000000 0.000000 0.000000 1.000000 0.488522 0.601240
6.992605 -15.065251 -0.000002 0.000000 0.000000 1.000000 0.558848 0.527315
19.489115 -29.538364 -0.000005 0.000000 0.000000 1.000000 0.615384 0.576129
37.715134 -15.065249 -0.000002 0.000000 0.000000 1.000000 0.558848 0.647324
-11.781336 -32.999241 -0.000005 0.000000 0.000000 1.000000 0.628903 0.453979
1.857048 -43.825806 -0.000007 0.000000 0.000000 1.000000 0.671194 0.507254
-30.957191 -50.772762 -0.000008 0.000000 0.000000 1.000000 0.698331 0.379073
-16.122520 -57.979996 -0.000009 0.000000 0.000000 1.000000 0.726484 0.437021
31.465179 -43.825806 -0.000007 0.000000 0.000000 1.000000 0.671194 0.622911
49.389503 -32.999237 -0.000005 0.000000 0.000000 1.000000 0.628903 0.692927
14.581646 -54.331573 -0.000009 0.000000 0.000000 1.000000 0.712232 0.556959
-2.208324 -64.740021 -0.000011 0.000000 0.000000 1.000000 0.752891 0.491374
-79.828979 -108.371826 -0.000018 0.000000 0.000000 1.000000 0.923327 0.188168
-52.077904 -109.582603 -0.000018 0.000000 0.000000 1.000000 0.928057 0.296571
-39.977310 -92.133530 -0.000015 0.000000 0.000000 1.000000 0.859896 0.343839
-63.396313 -89.157562 -0.000015 0.000000 0.000000 0.999969 0.848272 0.252358
-24.462616 -110.736969 -0.000018 0.000000 0.000000 1.000000 0.932566 0.404443
-16.991426 -94.831879 -0.000015 0.000000 0.000000 1.000000 0.870437 0.433627
3.115538 -112.259895 -0.000018 0.000000 0.000000 1.000000 0.938515 0.512170
5.968680 -97.845436 -0.000016 0.000000 0.000000 1.000000 0.882209 0.523315
-27.899288 -75.147720 -0.000012 0.000000 0.000000 1.000000 0.793546 0.391018
-46.998417 -70.069214 -0.000011 0.000000 0.000000 1.000000 0.773708 0.316412
-9.553855 -79.736931 -0.000013 0.000000 0.000000 1.000000 0.811472 0.462680
8.644788 -84.325378 -0.000014 0.000000 0.000000 1.000000 0.829396 0.533769
11.229221 -71.268471 -0.000012 0.000000 0.000000 1.000000 0.778392 0.543864
128.000000 -128.000000 -0.000021 0.000000 0.000000 1.000000 1.000000 1.000000
116.210960 -106.725677 -0.000017 0.000000 0.000000 1.000000 0.916897 0.953949
96.000000 -128.000000 -0.000021 0.000000 0.000000 1.000000 1.000000 0.875000
104.421921 -85.451355 -0.000014 0.000000 0.000000 1.000000 0.833794 0.907898
92.632874 -64.177025 -0.000010 0.000000 0.000000 1.000000 0.750691 0.861847
80.843826 -42.902702 -0.000007 0.000000 0.000000 1.000000 0.667588 0.815796
64.000000 -128.000000 -0.000021 0.000000 0.000000 1.000000 1.000000 0.750000
32.000000 -128.000000 -0.000021 0.000000 0.000000 1.000000 1.000000 0.625000
0.000000 -128.000000 -0.000021 0.000000 0.000000 1.000000 1.000000 0.500000
33.687660 42.194592 0.000007 0.000000 0.000000 1.000000 0.335177 0.631592
13.476704 20.920269 0.000003 0.000000 0.000000 1.000000 0.418280 0.552643
45.476704 20.920269 0.000003 0.000000 0.000000 1.000000 0.418280 0.677643
-6.734254 -0.354055 -0.000000 0.000000 0.000000 1.000000 0.501383 0.473694
-26.945213 -21.628380 -0.000004 0.000000 0.000000 1.000000 0.584486 0.394745
-47.156170 -42.902702 -0.000007 0.000000 0.000000 1.000000 0.667588 0.315796
57.265747 -0.354055 -0.000000 0.000000 0.000000 1.000000 0.501383 0.723694
69.054787 -21.628380 -0.000004 0.000000 0.000000 1.000000 0.584486 0.769745
-128.000000 -128.000000 -0.000021 0.000000 0.000000 1.000000 1.000000 0.000000
-96.000000 -128.000000 -0.000021 0.000000 0.000000 1.000000 1.000000 0.125000
-107.789047 -106.725677 -0.000017 0.000000 0.000000 1.000000 0.916897 0.078949
-64.000000 -128.000000 -0.000021 0.000000 0.000000 1.000000 1.000000 0.250000
-32.000000 -128.000000 -0.000021 0.000000 0.000000 1.000000 1.000000 0.375000
-87.578087 -85.451355 -0.000014 0.000000 0.000000 1.000000 0.833794 0.157898
-67.367126 -64.177025 -0.000010 0.000000 0.000000 1.000000 0.750691 0.236847
117.123169 -78.847900 -0.000013 0.000000 0.000000 1.000000 0.808000 0.957512
117.794098 -51.157330 -0.000008 0.000000 0.000000 1.000000 0.699833 0.960133
108.124802 -38.184578 -0.000006 0.000000 0.000000 1.000000 0.649158 0.922363
106.475693 -61.454830 -0.000010 0.000000 0.000000 1.000000 0.740058 0.915921
118.433777 -23.599749 -0.000004 0.000000 0.000000 0.999969 0.592186 0.962632
109.620071 -15.333568 -0.000002 0.000000 0.000000 1.000000 0.559897 0.928203
119.277710 3.902286 0.000001 0.000000 0.000000 1.000000 0.484757 0.965928
111.290024 7.475915 0.000001 0.000000 0.000000 1.000000 0.470797 0.934727
98.712219 -25.257544 -0.000004 0.000000 0.000000 0.999969 0.598662 0.885594
95.897987 -44.102829 -0.000007 0.000000 0.000000 1.000000 0.672277 0.874601
101.255302 -7.141494 -0.000001 0.000000 0.000000 1.000000 0.527896 0.895528
103.797966 10.827803 0.000002 0.000000 0.000000 1.000000 0.457704 0.905461
117.123169 88.580315 0.000014 0.000000 0.000000 1.000000 0.153983 0.957512
106.475685 80.714447 0.000013 0.000000 0.000000 0.999969 0.184709 0.915921
108.124817 55.968601 0.000009 0.000000 0.000000 1.000000 0.281373 0.922363
117.794098 60.289410 0.000010 0.000000 0.000000 1.000000 0.264494 0.960133
95.897987 72.827194 0.000012 0.000000 0.000000 1.000000 0.215519 0.874601
98.712219 51.463783 0.000008 0.000000 0.000000 1.000000 0.298969 0.885594
85.204971 65.389404 0.000011 0.000000 0.000000 1.000000 0.244572 0.832832
89.198822 47.341343 0.000008 0.000000 0.000000 1.000000 0.315073 0.848433
109.620071 31.779627 0.000005 0.000000 0.000000 1.000000 0.375861 0.928203
118.433792 32.159443 0.000005 0.000000 0.000000 1.000000 0.374377 0.962632
101.255295 31.072231 0.000005 0.000000 0.000000 1.000000 0.378624 0.895528
92.944855 30.413155 0.000005 0.000000 0.000000 1.000000 0.381198 0.863066
55.441338 32.462173 0.000005 0.000000 0.000000 1.000000 0.373194 0.716567
65.417862 12.637486 0.000002 0.000000 0.000000 1.000000 0.450635 0.755538
73.438049 24.410580 0.000004 0.000000 0.000000 0.999969 0.404646 0.786867
65.417870 43.360012 0.000007 0.000000 0.000000 1.000000 0.330625 0.755538
75.355881 -7.032855 -0.000001 0.000000 0.000000 1.000000 0.527472 0.794359
81.355362 6.064373 0.000001 0.000000 0.000000 1.000000 0.476311 0.817794
85.204971 -27.097099 -0.000004 0.000000 0.000000 1.000000 0.605848 0.832832
89.198822 -12.622670 -0.000002 0.000000 0.000000 1.000000 0.549307 0.848433
81.355354 35.672504 0.000006 0.000000 0.000000 1.000000 0.360654 0.817794
75.355881 54.137974 0.000009 0.000000 0.000000 1.000000 0.288523 0.794359
87.177063 18.263855 0.000003 0.000000 0.000000 1.000000 0.428657 0.840535
92.944855 0.953636 0.000000 0.000000 0.000000 1.000000 0.496275 0.863066
119.277710 3.902286 0.000001 0.000000 0.000000 1.000000 0.484757 0.965929
96.562553 14.064864 0.000002 0.000000 0.000000 0.999969 0.445059 0.877197
128.000000 -96.000000 -0.000016 0.000000 0.000000 1.000000 0.875000 1.000000
128.000000 -64.000000 -0.000010 0.000000 0.000000 1.000000 0.750000 1.000000
128.000000 -32.000000 -0.000005 0.000000 0.000000 1.000000 0.625000 1.000000
128.000000 0.000000 0.000000 0.000000 0.000000 1.000000 0.500000 1.000000
128.000000 128.000000 0.000021 0.000000 0.000000 1.000000 0.000000 1.000000
116.210960 117.274330 0.000019 0.000000 0.000000 1.000000 0.041897 0.953949
128.000000 96.000000 0.000016 0.000000 0.000000 1.000000 0.125000 1.000000
104.421921 106.548660 0.000017 0.000000 0.000000 1.000000 0.083794 0.907898
92.632874 95.822975 0.000016 0.000000 0.000000 1.000000 0.125691 0.861847
80.843826 85.097298 0.000014 0.000000 0.000000 1.000000 0.167589 0.815796
128.000000 64.000000 0.000010 0.000000 0.000000 1.000000 0.250000 1.000000
128.000000 32.000000 0.000005 0.000000 0.000000 1.000000 0.375000 1.000000
45.476704 52.920269 0.000009 0.000000 0.000000 1.000000 0.293280 0.677643
57.265747 63.645947 0.000010 0.000000 0.000000 0.999969 0.251383 0.723694
69.054787 74.371620 0.000012 0.000000 0.000000 1.000000 0.209486 0.769745
-109.352905 -78.847900 -0.000013 0.000000 0.000000 1.000000 0.808000 0.072840
-91.099045 -61.454830 -0.000010 0.000000 0.000000 1.000000 0.740058 0.144144
-93.926254 -38.184582 -0.000006 0.000000 0.000000 1.000000 0.649158 0.133100
-110.503166 -51.157330 -0.000008 0.000000 0.000000 1.000000 0.699833 0.068347
-72.964790 -44.102829 -0.000007 0.000000 0.000000 1.000000 0.672277 0.214981
-77.789459 -25.257540 -0.000004 0.000000 0.000000 1.000000 0.598662 0.196135
-54.632851 -27.097097 -0.000004 0.000000 0.000000 1.000000 0.605848 0.286590
-61.479843 -12.622667 -0.000002 0.000000 0.000000 1.000000 0.549307 0.259844
-96.489738 -15.333568 -0.000002 0.000000 0.000000 1.000000 0.559897 0.123087
-111.599823 -23.599747 -0.000004 0.000000 0.000000 1.000000 0.592186 0.064063
-82.149277 -7.141493 -0.000001 0.000000 0.000000 1.000000 0.527896 0.179104
-67.901978 0.953638 0.000000 0.000000 0.000000 1.000000 0.496275 0.234758
-3.606520 32.462166 0.000005 0.000000 0.000000 1.000000 0.373194 0.485912
-20.710133 43.360008 0.000007 0.000000 0.000000 1.000000 0.330625 0.419101
-34.459824 24.410582 0.000004 0.000000 0.000000 1.000000 0.404646 0.365391
-20.710131 12.637487 0.000002 0.000000 0.000000 1.000000 0.450635 0.419101
-37.747715 54.137978 0.000009 0.000000 0.000000 1.000000 0.288523 0.352548
-48.033131 35.672504 0.000006 0.000000 0.000000 1.000000 0.360654 0.312370
-54.632851 65.389404 0.000011 0.000000 0.000000 1.000000 0.244572 0.286590
-61.479843 47.341351 0.000008 0.000000 0.000000 1.000000 0.315073 0.259844
-48.033134 6.064375 0.000001 0.000000 0.000000 1.000000 0.476311 0.312370
-37.747715 -7.032854 -0.000001 0.000000 0.000000 1.000000 0.527472 0.352548
-58.013786 18.263855 0.000003 0.000000 0.000000 1.000000 0.428657 0.273384
-67.901978 30.413158 0.000005 0.000000 0.000000 1.000000 0.381198 0.234758
-109.352905 88.580315 0.000014 0.000000 0.000000 1.000000 0.153983 0.072840
-110.503166 60.289413 0.000010 0.000000 0.000000 1.000000 0.264494 0.068347
-93.926262 55.968601 0.000009 0.000000 0.000000 1.000000 0.281373 0.133100
-91.099052 80.714439 0.000013 0.000000 0.000000 1.000000 0.184709 0.144144
-111.599838 32.159439 0.000005 0.000000 0.000000 1.000000 0.374377 0.064063
-96.489738 31.779627 0.000005 0.000000 0.000000 1.000000 0.375861 0.123087
-113.046631 3.902285 0.000001 0.000000 0.000000 1.000000 0.484757 0.058412
-99.352661 7.475913 0.000001 0.000000 0.000000 1.000000 0.470797 0.111904
-77.789467 51.463787 0.000008 0.000000 0.000000 1.000000 0.298970 0.196135
-72.964798 72.827194 0.000012 0.000000 0.000000 1.000000 0.215519 0.214981
-82.149277 31.072231 0.000005 0.000000 0.000000 1.000000 0.378624 0.179104
-86.508392 10.827801 0.000002 0.000000 0.000000 1.000000 0.457704 0.162077
-74.104111 14.064865 0.000002 0.000000 0.000000 1.000000 0.445059 0.210531
-128.000000 -96.000000 -0.000016 0.000000 0.000000 1.000000 0.875000 0.000000
-128.000000 -64.000000 -0.000010 0.000000 0.000000 1.000000 0.750000 0.000000
-128.000000 -32.000000 -0.000005 0.000000 0.000000 1.000000 0.625000 0.000000
-128.000000 0.000000 0.000000 0.000000 0.000000 1.000000 0.500000 0.000000
13.476704 52.920269 0.000009 0.000000 0.000000 1.000000 0.293280 0.552643
-6.734254 63.645947 0.000010 0.000000 0.000000 1.000000 0.251383 0.473694
-26.945213 74.371620 0.000012 0.000000 0.000000 1.000000 0.209486 0.394745
-47.156170 85.097298 0.000014 0.000000 0.000000 1.000000 0.167589 0.315796
-128.000000 128.000000 0.000021 0.000000 0.000000 1.000000 0.000000 0.000000
-128.000000 96.000000 0.000016 0.000000 0.000000 1.000000 0.125000 0.000000
-107.789047 117.274330 0.000019 0.000000 0.000000 1.000000 0.041897 0.078949
-128.000000 64.000000 0.000010 0.000000 0.000000 1.000000 0.250000 0.000000
-128.000000 32.000000 0.000005 0.000000 0.000000 1.000000 0.375000 0.000000
-87.578087 106.548660 0.000017 0.000000 0.000000 1.000000 0.083794 0.157898
-67.367126 95.822975 0.000016 0.000000 0.000000 1.000000 0.125691 0.236847
-79.828979 118.104240 0.000019 0.000000 0.000000 1.000000 0.038655 0.188168
-63.396313 108.417168 0.000018 0.000000 0.000000 1.000000 0.076495 0.252358
-39.977314 109.917534 0.000018 0.000000 0.000000 1.000000 0.070635 0.343839
-52.077904 118.714661 0.000019 0.000000 0.000000 1.000000 0.036271 0.296571
-46.998413 98.793579 0.000016 0.000000 0.000000 1.000000 0.114087 0.316412
-27.899282 101.353958 0.000017 0.000000 0.000000 1.000000 0.104086 0.391018
-30.957191 89.065063 0.000015 0.000000 0.000000 1.000000 0.152089 0.379073
-16.122519 92.698669 0.000015 0.000000 0.000000 1.000000 0.137896 0.437021
-16.991426 111.277939 0.000018 0.000000 0.000000 1.000000 0.065320 0.433627
-24.462616 119.296646 0.000019 0.000000 0.000000 1.000000 0.033997 0.404443
-9.553855 103.667664 0.000017 0.000000 0.000000 1.000000 0.095048 0.462680
-2.208322 96.106812 0.000016 0.000000 0.000000 1.000000 0.124583 0.491374
25.917408 61.986084 0.000010 0.000000 0.000000 1.000000 0.257867 0.601240
37.715130 71.062752 0.000012 0.000000 0.000000 1.000000 0.222411 0.647324
19.489120 78.359512 0.000013 0.000000 0.000000 1.000000 0.193908 0.576129
6.992606 71.062752 0.000012 0.000000 0.000000 1.000000 0.222411 0.527315
49.389503 80.104362 0.000013 0.000000 0.000000 1.000000 0.187092 0.692927
31.465181 85.562698 0.000014 0.000000 0.000000 1.000000 0.165771 0.622911
61.529312 89.065071 0.000015 0.000000 0.000000 1.000000 0.152089 0.740349
43.841499 92.698669 0.000015 0.000000 0.000000 1.000000 0.137896 0.671256
1.857050 85.562691 0.000014 0.000000 0.000000 1.000000 0.165771 0.507254
-11.781332 80.104355 0.000013 0.000000 0.000000 1.000000 0.187092 0.453979
14.581647 90.859268 0.000015 0.000000 0.000000 1.000000 0.145081 0.556959
27.251198 96.106812 0.000016 0.000000 0.000000 1.000000 0.124583 0.606450
87.599228 118.104240 0.000019 0.000000 0.000000 1.000000 0.038655 0.842185
59.368832 118.714668 0.000019 0.000000 0.000000 1.000000 0.036271 0.731909
54.175854 109.917519 0.000018 0.000000 0.000000 1.000000 0.070635 0.711624
78.772957 108.417175 0.000018 0.000000 0.000000 1.000000 0.076495 0.807707
31.296574 119.296661 0.000019 0.000000 0.000000 1.000000 0.033997 0.622252
30.121767 111.277939 0.000018 0.000000 0.000000 1.000000 0.065320 0.617663
3.115538 120.064461 0.000020 0.000000 0.000000 1.000000 0.030998 0.512170
5.968680 112.797256 0.000018 0.000000 0.000000 1.000000 0.059386 0.523315
48.822041 101.353958 0.000017 0.000000 0.000000 1.000000 0.104086 0.690711
69.931602 98.793579 0.000016 0.000000 0.000000 1.000000 0.114087 0.773170
28.659872 103.667656 0.000017 0.000000 0.000000 1.000000 0.095048 0.611952
8.644788 105.980972 0.000017 0.000000 0.000000 1.000000 0.086012 0.533769
11.229221 99.398201 0.000016 0.000000 0.000000 1.000000 0.111726 0.543864
-96.000000 128.000000 0.000021 0.000000 0.000000 1.000000 0.000000 0.125000
-64.000000 128.000000 0.000021 0.000000 0.000000 1.000000 0.000000 0.250000
-32.000000 128.000000 0.000021 0.000000 0.000000 1.000000 0.000000 0.375000
0.000000 128.000000 0.000021 0.000000 0.000000 1.000000 0.000000 0.500000
96.000000 128.000000 0.000021 0.000000 0.000000 1.000000 0.000000 0.875000
64.000000 128.000000 0.000021 0.000000 0.000000 1.000000 0.000000 0.750000
32.000000 128.000000 0.000021 0.000000 0.000000 1.000000 0.000000 0.625000
4 0 1 2 3
4 1 4 5 2
4 4 6 7 5
4 3 2 8 9
4 2 5 10 8
4 5 7 11 10
4 12 13 14 15
4 13 16 17 14
4 16 18 19 17
4 15 14 20 21
4 14 17 22 20
4 17 19 23 22
4 24 25 26 27
4 25 28 29 26
4 28 30 31 29
4 27 26 32 33
4 26 29 34 32
4 29 31 35 34
4 21 20 7 6
4 20 22 11 7
4 33 32 19 18
4 32 34 23 19
4 9 8 31 30
4 8 10 35 31
4 10 11 36 35
4 22 23 36 11
4 34 35 36 23
4 37 38 0 39
4 38 40 1 0
4 40 41 4 1
4 41 42 6 4
4 39 0 3 43
4 43 3 9 44
4 44 9 30 45
4 46 47 12 48
4 47 49 13 12
4 49 50 16 13
4 50 51 18 16
4 48 12 15 52
4 52 15 21 53
4 53 21 6 42
4 54 55 24 56
4 55 57 25 24
4 57 58 28 25
4 58 45 30 28
4 56 24 27 59
4 59 27 33 60
4 60 33 18 51
4 61 62 63 64
4 62 65 66 63
4 65 67 68 66
4 64 63 69 70
4 63 66 71 69
4 66 68 72 71
4 73 74 75 76
4 74 77 78 75
4 77 79 80 78
4 76 75 81 82
4 75 78 83 81
4 78 80 84 83
4 85 86 87 88
4 86 89 90 87
4 89 91 92 90
4 88 87 93 94
4 87 90 95 93
4 90 92 96 95
4 82 81 68 97
4 81 83 72 68
4 94 93 80 79
4 93 95 84 80
4 70 69 92 91
4 69 71 96 92
4 71 72 98 96
4 83 84 98 72
4 95 96 98 84
4 37 99 61 38
4 99 100 62 61
4 100 101 65 62
4 101 102 67 65
4 38 61 64 40
4 40 64 70 41
4 41 70 91 42
4 103 104 73 105
4 104 106 74 73
4 106 107 77 74
4 107 108 79 77
4 105 73 76 109
4 109 76 82 110
4 110 82 97 102
4 46 48 85 111
4 48 52 86 85
4 52 53 89 86
4 53 42 91 89
4 111 85 88 112
4 112 88 94 113
4 113 94 79 108
4 114 115 116 117
4 115 118 119 116
4 118 120 121 119
4 117 116 122 123
4 116 119 124 122
4 119 121 125 124
4 126 127 128 129
4 127 130 131 128
4 130 132 133 131
4 129 128 134 135
4 128 131 136 134
4 131 133 137 136
4 138 139 140 141
4 139 142 143 140
4 142 144 145 143
4 141 140 146 147
4 140 143 148 146
4 143 145 149 148
4 135 134 121 120
4 134 136 125 121
4 147 146 133 132
4 146 148 137 133
4 123 122 145 144
4 122 124 149 145
4 124 125 150 149
4 136 137 150 125
4 148 149 150 137
4 54 56 114 151
4 56 59 115 114
4 59 60 118 115
4 60 51 120 118
4 151 114 117 152
4 152 117 123 153
4 153 123 144 154
4 46 155 126 47
4 155 156 127 126
4 156 157 130 127
4 157 158 132 130
4 47 126 129 49
4 49 129 135 50
4 50 135 120 51
4 159 160 138 161
4 160 162 139 138
4 162 163 142 139
4 163 154 144 142
4 161 138 141 164
4 164 141 147 165
4 165 147 132 158
4 166 167 168 169
4 167 170 171 168
4 170 172 173 171
4 169 168 174 175
4 168 171 176 174
4 171 173 177 176
4 178 179 180 181
4 179 182 183 180
4 182 184 185 183
4 181 180 186 187
4 180 183 188 186
4 183 185 189 188
4 190 191 192 193
4 191 194 195 192
4 194 196 197 195
4 193 192 198 199
4 192 195 200 198
4 195 197 201 200
4 187 186 173 172
4 186 188 177 173
4 199 198 185 184
4 198 200 189 185
4 175 174 197 196
4 174 176 201 197
4 176 177 202 201
4 188 189 202 177
4 200 201 202 189
4 159 161 166 203
4 161 164 167 166
4 164 165 170 167
4 165 158 172 170
4 203 166 169 204
4 204 169 175 205
4 205 175 196 206
4 46 111 178 155
4 111 112 179 178
4 112 113 182 179
4 113 108 184 182
4 155 178 181 156
4 156 181 187 157
4 157 187 172 158
4 103 207 190 104
4 207 208 191 190
4 208 209 194 191
4 209 206 196 194
4 104 190 193 106
4 106 193 199 107
4 107 199 184 108
