ply
format ascii 1.0
comment TextureFile TaylorSwift_Eras_Poster.jpg
element vertex 210
property float x
property float y
property float z
property float nx
property float ny
property float nz
property float s
property float t
element face 384
property list uchar uint vertex_indices
end_header
78.772964 -89.157562 -0.000015 0.000000 0.000000 1.000000 0.848272 0.807707
59.368843 -109.582596 -0.000018 0.000000 0.000000 0.999969 0.928057 0.731909
87.599228 -108.371826 -0.000018 0.000000 0.000000 1.000000 0.923327 0.842185
69.931625 -70.069214 -0.000011 0.000000 0.000000 1.000000 0.773708 0.773170
54.175861 -92.133514 -0.000015 0.000000 0.000000 1.000000 0.859896 0.711624
61.529312 -50.772762 -0.000008 0.000000 0.000000 1.000000 0.698331 0.740349
48.822044 -75.147728 -0.000012 0.000000 0.000000 1.000000 0.793546 0.690711
31.296576 -110.736969 -0.000018 0.000000 0.000000 1.000000 0.932566 0.622252
30.121771 -94.831879 -0.000015 0.000000 0.000000 1.000000 0.870437 0.617663
27.251196 -64.740021 -0.000011 0.000000 0.000000 1.000000 0.752891 0.606450
28.659872 -79.736916 -0.000013 0.000000 0.000000 1.000000 0.811472 0.611953
6.992605 -15.065251 -0.000002 0.000000 0.000000 1.000000 0.558848 0.527315
37.715134 -15.065249 -0.000002 0.000000 0.000000 1.000000 0.558848 0.647324
25.917408 2.938242 0.000000 0.000000 0.000000 1.000000 0.488522 0.601240
1.857048 -43.825806 -0.000007 0.000000 0.000000 1.000000 0.671194 0.507254
19.489115 -29.538364 -0.000005 0.000000 0.000000 0.999969 0.615384 0.576129
-11.781336 -32.999241 -0.000005 0.000000 0.000000 1.000000 0.628903 0.453979
-16.122520 -57.979996 -0.000009 0.000000 0.000000 1.000000 0.726484 0.437021
31.465179 -43.825806 -0.000007 0.000000 0.000000 1.000000 0.671194 0.622911
49.389503 -32.999237 -0.000005 0.000000 0.000000 1.000000 0.628903 0.692927
14.581646 -54.331573 -0.000009 0.000000 0.000000 1.000000 0.712232 0.556959
-2.208324 -64.740021 -0.000011 0.000000 0.000000 1.000000 0.752891 0.491374
-52.077904 -109.582603 -0.000018 0.000000 0.000000 0.999969 0.928057 0.296571
-63.396313 -89.157562 -0.000015 0.000000 0.000000 1.000000 0.848272 0.252358
-79.828979 -108.371826 -0.000018 0.000000 0.000000 1.000000 0.923327 0.188168
-24.462616 -110.736969 -0.000018 0.000000 0.000000 1.000000 0.932566 0.404443
-39.977310 -92.133530 -0.000015 0.000000 0.000000 1.000000 0.859896 0.343839
3.115538 -112.259895 -0.000018 0.000000 0.000000 1.000000 0.938515 0.512170
-16.991426 -94.831879 -0.000015 0.000000 0.000000 1.000000 0.870437 0.433627
-46.998417 -70.069214 -0.000011 0.000000 0.000000 1.000000 0.773708 0.316412
-27.899288 -75.147720 -0.000012 0.000000 0.000000 1.000000 0.793546 0.391018
5.968680 -97.845436 -0.000016 0.000000 0.000000 1.000000 0.882209 0.523315
-9.553855 -79.736931 -0.000013 0.000000 0.000000 1.000000 0.811472 0.462680
43.841499 -57.979992 -0.000009 0.000000 0.000000 1.000000 0.726484 0.671256
-30.957191 -50.772762 -0.000008 0.000000 0.000000 1.000000 0.698331 0.379073
8.644788 -84.325378 -0.000014 0.000000 0.000000 1.000000 0.829396 0.533769
11.229221 -71.268471 -0.000012 0.000000 0.000000 1.000000 0.778392 0.543864
116.210960 -106.725677 -0.000017 0.000000 0.000000 1.000000 0.916897 0.953949
96.000000 -128.000000 -0.000021 0.000000 0.000000 1.000000 1.000000 0.875000
128.000000 -128.000000 -0.000021 0.000000 0.000000 1.000000 1.000000 1.000000
104.421921 -85.451355 -0.000014 0.000000 0.000000 1.000000 0.833794 0.907898
92.632874 -64.177025 -0.000010 0.000000 0.000000 1.000000 0.750691 0.861847
80.843826 -42.902702 -0.000007 0.000000 0.000000 1.000000 0.667588 0.815796
64.000000 -128.000000 -0.000021 0.000000 0.000000 1.000000 1.000000 0.750000
32.000000 -128.000000 -0.000021 0.000000 0.000000 1.000000 1.000000 0.625000
0.000000 -128.000000 -0.000021 0.000000 0.000000 1.000000 1.000000 0.500000
13.476704 20.920269 0.000003 0.000000 0.000000 1.000000 0.418280 0.552643
45.476704 20.920269 0.000003 0.000000 0.000000 1.000000 0.418280 0.677643
33.687660 42.194592 0.000007 0.000000 0.000000 1.000000 0.335177 0.631592
-6.734254 -0.354055 -0.000000 0.000000 0.000000 1.000000 0.501383 0.473694
-26.945213 -21.628380 -0.000004 0.000000 0.000000 1.000000 0.584486 0.394745
57.265747 -0.354055 -0.000000 0.000000 0.000000 1.000000 0.501383 0.723694
69.054787 -21.628380 -0.000004 0.000000 0.000000 1.000000 0.584486 0.769745
-96.000000 -128.000000 -0.000021 0.000000 0.000000 1.000000 1.000000 0.125000
-107.789047 -106.725677 -0.000017 0.000000 0.000000 1.000000 0.916897 0.078949
-128.000000 -128.000000 -0.000021 0.000000 0.000000 1.000000 1.000000 0.000000
-64.000000 -128.000000 -0.000021 0.000000 0.000000 1.000000 1.000000 0.250000
-32.000000 -128.000000 -0.000021 0.000000 0.000000 1.000000 1.000000 0.375000
-87.578087 -85.451355 -0.000014 0.000000 0.000000 1.000000 0.833794 0.157898
-67.367126 -64.177025 -0.000010 0.000000 0.000000 1.000000 0.750691 0.236847
-47.156170 -42.902702 -0.000007 0.000000 0.000000 1.000000 0.667588 0.315796
117.794098 -51.157330 -0.000008 0.000000 0.000000 1.000000 0.699833 0.960133
106.475693 -61.454830 -0.000010 0.000000 0.000000 1.000000 0.740058 0.915921
117.123169 -78.847900 -0.000013 0.000000 0.000000 1.000000 0.808000 0.957512
118.433777 -23.599749 -0.000004 0.000000 0.000000 1.000000 0.592186 0.962632
108.124802 -38.184578 -0.000006 0.000000 0.000000 1.000000 0.649158 0.922363
119.277710 3.902286 0.000001 0.000000 0.000000 1.000000 0.484757 0.965928
109.620071 -15.333568 -0.000002 0.000000 0.000000 0.999969 0.559897 0.928203
95.897987 -44.102829 -0.000007 0.000000 0.000000 1.000000 0.672277 0.874601
98.712219 -25.257544 -0.000004 0.000000 0.000000 1.000000 0.598662 0.885594
111.290024 7.475915 0.000001 0.000000 0.000000 1.000000 0.470797 0.934727
101.255302 -7.141494 -0.000001 0.000000 0.000000 1.000000 0.527896 0.895528
106.475685 80.714447 0.000013 0.000000 0.000000 1.000000 0.184709 0.915921
117.794098 60.289410 0.000010 0.000000 0.000000 0.999969 0.264494 0.960133
117.123169 88.580315 0.000014 0.000000 0.000000 1.000000 0.153983 0.957512
95.897987 72.827194 0.000012 0.000000 0.000000 1.000000 0.215519 0.874601
108.124817 55.968601 0.000009 0.000000 0.000000 1.000000 0.281373 0.922363
85.204971 65.389404 0.000011 0.000000 0.000000 1.000000 0.244572 0.832832
98.712219 51.463783 0.000008 0.000000 0.000000 1.000000 0.298969 0.885594
118.433792 32.159443 0.000005 0.000000 0.000000 1.000000 0.374377 0.962632
109.620071 31.779627 0.000005 0.000000 0.000000 1.000000 0.375861 0.928203
89.198822 47.341343 0.000008 0.000000 0.000000 1.000000 0.315073 0.848433
101.255295 31.072231 0.000005 0.000000 0.000000 1.000000 0.378624 0.895528
55.441338 32.462173 0.000005 0.000000 0.000000 1.000000 0.373194 0.716567
73.438049 24.410580 0.000004 0.000000 0.000000 0.999969 0.404646 0.786867
65.417870 43.360012 0.000007 0.000000 0.000000 1.000000 0.330625 0.755538
65.417862 12.637486 0.000002 0.000000 0.000000 1.000000 0.450635 0.755538
81.355362 6.064373 0.000001 0.000000 0.000000 1.000000 0.476311 0.817794
75.355881 -7.032855 -0.000001 0.000000 0.000000 1.000000 0.527472 0.794359
89.198822 -12.622670 -0.000002 0.000000 0.000000 1.000000 0.549307 0.848433
81.355354 35.672504 0.000006 0.000000 0.000000 1.000000 0.360654 0.817794
75.355881 54.137974 0.000009 0.000000 0.000000 1.000000 0.288523 0.794359
87.177063 18.263855 0.000003 0.000000 0.000000 1.000000 0.428657 0.840535
92.944855 0.953636 0.000000 0.000000 0.000000 1.000000 0.496275 0.863066
119.277710 3.902286 0.000001 0.000000 0.000000 1.000000 0.484757 0.965929
103.797966 10.827803 0.000002 0.000000 0.000000 1.000000 0.457704 0.905461
92.944855 30.413155 0.000005 0.000000 0.000000 1.000000 0.381198 0.863066
85.204971 -27.097099 -0.000004 0.000000 0.000000 1.000000 0.605848 0.832832
96.562553 14.064864 0.000002 0.000000 0.000000 1.000000 0.445059 0.877197
128.000000 -96.000000 -0.000016 0.000000 0.000000 1.000000 0.875000 1.000000
128.000000 -64.000000 -0.000010 0.000000 0.000000 1.000000 0.750000 1.000000
128.000000 -32.000000 -0.000005 0.000000 0.000000 1.000000 0.625000 1.000000
128.000000 0.000000 0.000000 0.000000 0.000000 1.000000 0.500000 1.000000
116.210960 117.274330 0.000019 0.000000 0.000000 1.000000 0.041897 0.953949
128.000000 96.000000 0.000016 0.000000 0.000000 1.000000 0.125000 1.000000
128.000000 128.000000 0.000021 0.000000 0.000000 1.000000 0.000000 1.000000
104.421921 106.548660 0.000017 0.000000 0.000000 1.000000 0.083794 0.907898
92.632874 95.822975 0.000016 0.000000 0.000000 1.000000 0.125691 0.861847
80.843826 85.097298 0.000014 0.000000 0.000000 1.000000 0.167589 0.815796
128.000000 64.000000 0.000010 0.000000 0.000000 1.000000 0.250000 1.000000
128.000000 32.000000 0.000005 0.000000 0.000000 0.999969 0.375000 1.000000
45.476704 52.920269 0.000009 0.000000 0.000000 1.000000 0.293280 0.677643
57.265747 63.645947 0.000010 0.000000 0.000000 1.000000 0.251383 0.723694
69.054787 74.371620 0.000012 0.000000 0.000000 0.999969 0.209486 0.769745
-91.099045 -61.454830 -0.000010 0.000000 0.000000 1.000000 0.740058 0.144144
-110.503166 -51.157330 -0.000008 0.000000 0.000000 1.000000 0.699833 0.068347
-109.352905 -78.847900 -0.000013 0.000000 0.000000 1.000000 0.808000 0.072840
-72.964790 -44.102829 -0.000007 0.000000 0.000000 1.000000 0.672277 0.214981
-93.926254 -38.184582 -0.000006 0.000000 0.000000 1.000000 0.649158 0.133100
-54.632851 -27.097097 -0.000004 0.000000 0.000000 1.000000 0.605848 0.286590
-77.789459 -25.257540 -0.000004 0.000000 0.000000 1.000000 0.598662 0.196135
-111.599823 -23.599747 -0.000004 0.000000 0.000000 1.000000 0.592186 0.064063
-96.489738 -15.333568 -0.000002 0.000000 0.000000 1.000000 0.559897 0.123087
-61.479843 -12.622667 -0.000002 0.000000 0.000000 1.000000 0.549307 0.259844
-82.149277 -7.141493 -0.000001 0.000000 0.000000 1.000000 0.527896 0.179104
-20.710133 43.360008 0.000007 0.000000 0.000000 1.000000 0.330625 0.419101
-20.710131 12.637487 0.000002 0.000000 0.000000 1.000000 0.450635 0.419101
-3.606520 32.462166 0.000005 0.000000 0.000000 1.000000 0.373194 0.485912
-48.033131 35.672504 0.000006 0.000000 0.000000 1.000000 0.360654 0.312370
-34.459824 24.410582 0.000004 0.000000 0.000000 1.000000 0.404646 0.365391
-37.747715 54.137978 0.000009 0.000000 0.000000 1.000000 0.288523 0.352548
-61.479843 47.341351 0.000008 0.000000 0.000000 1.000000 0.315073 0.259844
-48.033134 6.064375 0.000001 0.000000 0.000000 1.000000 0.476311 0.312370
-37.747715 -7.032854 -0.000001 0.000000 0.000000 1.000000 0.527472 0.352548
-58.013786 18.263855 0.000003 0.000000 0.000000 0.999969 0.428657 0.273384
-67.901978 30.413158 0.000005 0.000000 0.000000 0.999969 0.381198 0.234758
-110.503166 60.289413 0.000010 0.000000 0.000000 1.000000 0.264494 0.068347
-91.099052 80.714439 0.000013 0.000000 0.000000 1.000000 0.184709 0.144144
-109.352905 88.580315 0.000014 0.000000 0.000000 1.000000 0.153983 0.072840
-111.599838 32.159439 0.000005 0.000000 0.000000 1.000000 0.374377 0.064063
-93.926262 55.968601 0.000009 0.000000 0.000000 1.000000 0.281373 0.133100
-99.352661 7.475913 0.000001 0.000000 0.000000 1.000000 0.470797 0.111904
-96.489738 31.779627 0.000005 0.000000 0.000000 1.000000 0.375861 0.123087
-72.964798 72.827194 0.000012 0.000000 0.000000 1.000000 0.215519 0.214981
-77.789467 51.463787 0.000008 0.000000 0.000000 1.000000 0.298970 0.196135
-86.508392 10.827801 0.000002 0.000000 0.000000 1.000000 0.457704 0.162077
-82.149277 31.072231 0.000005 0.000000 0.000000 0.999969 0.378624 0.179104
-67.901978 0.953638 0.000000 0.000000 0.000000 1.000000 0.496275 0.234758
-54.632851 65.389404 0.000011 0.000000 0.000000 1.000000 0.244572 0.286590
-113.046631 3.902285 0.000001 0.000000 0.000000 1.000000 0.484757 0.058412
-74.104111 14.064865 0.000002 0.000000 0.000000 1.000000 0.445059 0.210531
-128.000000 -96.000000 -0.000016 0.000000 0.000000 1.000000 0.875000 0.000000
-128.000000 -64.000000 -0.000010 0.000000 0.000000 1.000000 0.750000 0.000000
-128.000000 -32.000000 -0.000005 0.000000 0.000000 1.000000 0.625000 0.000000
-128.000000 0.000000 0.000000 0.000000 0.000000 1.000000 0.500000 0.000000
13.476704 52.920269 0.000009 0.000000 0.000000 1.000000 0.293280 0.552643
-6.734254 63.645947 0.000010 0.000000 0.000000 1.000000 0.251383 0.473694
-26.945213 74.371620 0.000012 0.000000 0.000000 1.000000 0.209486 0.394745
-128.000000 96.000000 0.000016 0.000000 0.000000 1.000000 0.125000 0.000000
-107.789047 117.274330 0.000019 0.000000 0.000000 1.000000 0.041897 0.078949
-128.000000 128.000000 0.000021 0.000000 0.000000 1.000000 0.000000 0.000000
-128.000000 64.000000 0.000010 0.000000 0.000000 1.000000 0.250000 0.000000
-128.000000 32.000000 0.000005 0.000000 0.000000 1.000000 0.375000 0.000000
-87.578087 106.548660 0.000017 0.000000 0.000000 1.000000 0.083794 0.157898
-67.367126 95.822975 0.000016 0.000000 0.000000 1.000000 0.125691 0.236847
-47.156170 85.097298 0.000014 0.000000 0.000000 1.000000 0.167589 0.315796
-63.396313 108.417168 0.000018 0.000000 0.000000 1.000000 0.076495 0.252358
-52.077904 118.714661 0.000019 0.000000 0.000000 1.000000 0.036271 0.296571
-79.828979 118.104240 0.000019 0.000000 0.000000 1.000000 0.038655 0.188168
-46.998413 98.793579 0.000016 0.000000 0.000000 1.000000 0.114087 0.316412
-39.977314 109.917534 0.000018 0.000000 0.000000 1.000000 0.070635 0.343839
-30.957191 89.065063 0.000015 0.000000 0.000000 1.000000 0.152089 0.379073
-27.899282 101.353958 0.000017 0.000000 0.000000 1.000000 0.104086 0.391018
-24.462616 119.296646 0.000019 0.000000 0.000000 1.000000 0.033997 0.404443
-16.991426 111.277939 0.000018 0.000000 0.000000 1.000000 0.065320 0.433627
-16.122519 92.698669 0.000015 0.000000 0.000000 1.000000 0.137896 0.437021
-9.553855 103.667664 0.000017 0.000000 0.000000 1.000000 0.095048 0.462680
25.917408 61.986084 0.000010 0.000000 0.000000 1.000000 0.257867 0.601240
19.489120 78.359512 0.000013 0.000000 0.000000 1.000000 0.193908 0.576129
6.992606 71.062752 0.000012 0.000000 0.000000 1.000000 0.222411 0.527315
37.715130 71.062752 0.000012 0.000000 0.000000 1.000000 0.222411 0.647324
31.465181 85.562698 0.000014 0.000000 0.000000 1.000000 0.165771 0.622911
49.389503 80.104362 0.000013 0.000000 0.000000 1.000000 0.187092 0.692927
43.841499 92.698669 0.000015 0.000000 0.000000 1.000000 0.137896 0.671256
1.857050 85.562691 0.000014 0.000000 0.000000 1.000000 0.165771 0.507254
-11.781332 80.104355 0.000013 0.000000 0.000000 1.000000 0.187092 0.453979
14.581647 90.859268 0.000015 0.000000 0.000000 1.000000 0.145081 0.556959
27.251198 96.106812 0.000016 0.000000 0.000000 1.000000 0.124583 0.606450
59.368832 118.714668 0.000019 0.000000 0.000000 1.000000 0.036271 0.731909
78.772957 108.417175 0.000018 0.000000 0.000000 1.000000 0.076495 0.807707
87.599228 118.104240 0.000019 0.000000 0.000000 1.000000 0.038655 0.842185
31.296574 119.296661 0.000019 0.000000 0.000000 1.000000 0.033997 0.622252
54.175854 109.917519 0.000018 0.000000 0.000000 1.000000 0.070635 0.711624
5.968680 112.797256 0.000018 0.000000 0.000000 1.000000 0.059386 0.523315
30.121767 111.277939 0.000018 0.000000 0.000000 1.000000 0.065320 0.617663
69.931602 98.793579 0.000016 0.000000 0.000000 1.000000 0.114087 0.773170
48.822041 101.353958 0.000017 0.000000 0.000000 1.000000 0.104086 0.690711
8.644788 105.980972 0.000017 0.000000 0.000000 0.999969 0.086012 0.533769
28.659872 103.667656 0.000017 0.000000 0.000000 1.000000 0.095048 0.611952
-2.208322 96.106812 0.000016 0.000000 0.000000 1.000000 0.124583 0.491374
61.529312 89.065071 0.000015 0.000000 0.000000 1.000000 0.152089 0.740349
3.115538 120.064461 0.000020 0.000000 0.000000 0.999969 0.030998 0.512170
11.229221 99.398201 0.000016 0.000000 0.000000 1.000000 0.111726 0.543864
-96.000000 128.000000 0.000021 0.000000 0.000000 1.000000 0.000000 0.125000
-64.000000 128.000000 0.000021 0.000000 0.000000 1.000000 0.000000 0.250000
-32.000000 128.000000 0.000021 0.000000 0.000000 1.000000 0.000000 0.375000
0.000000 128.000000 0.000021 0.000000 0.000000 1.000000 0.000000 0.500000
96.000000 128.000000 0.000021 0.000000 0.000000 1.000000 0.000000 0.875000
64.000000 128.000000 0.000021 0.000000 0.000000 1.000000 0.000000 0.750000
32.000000 128.000000 0.000021 0.000000 0.000000 1.000000 0.000000 0.625000
3 0 1 2
3 3 4 0
3 5 6 3
3 4 7 1
3 6 8 4
3 6 9 10
3 11 12 13
3 11 14 15
3 16 17 14
3 12 18 19
3 15 20 18
3 14 21 20
3 22 23 24
3 25 26 22
3 27 28 25
3 26 29 23
3 28 30 26
3 31 32 28
3 19 33 5
3 18 9 33
3 30 34 29
3 32 17 30
3 7 31 27
3 8 35 31
3 10 36 35
3 20 36 9
3 32 36 21
3 37 38 39
3 40 2 37
3 41 0 40
3 42 3 41
3 2 43 38
3 1 44 43
3 44 27 45
3 46 47 48
3 49 13 46
3 49 16 11
3 50 34 16
3 13 51 47
3 12 52 51
3 52 5 42
3 53 54 55
3 56 24 53
3 57 22 56
3 45 25 57
3 24 58 54
3 23 59 58
3 29 60 59
3 61 62 63
3 64 65 61
3 66 67 64
3 65 68 62
3 67 69 65
3 70 71 67
3 72 73 74
3 75 76 72
3 77 78 75
3 76 79 73
3 78 80 76
3 81 82 78
3 83 84 85
3 86 87 84
3 88 89 87
3 85 90 91
3 84 92 90
3 87 93 92
3 79 70 94
3 80 95 70
3 91 81 77
3 90 96 81
3 69 97 68
3 71 89 69
3 95 93 71
3 82 98 95
3 92 98 96
3 99 37 39
3 100 63 99
3 101 61 100
3 102 64 101
3 63 40 37
3 62 41 40
3 68 42 41
3 103 104 105
3 106 74 103
3 107 72 106
3 108 75 107
3 74 109 104
3 73 110 109
3 110 94 102
3 48 83 111
3 47 86 83
3 51 88 86
3 52 97 88
3 111 85 112
3 112 91 113
3 113 77 108
3 114 115 116
3 117 118 114
3 119 120 117
3 118 121 115
3 120 122 118
3 123 124 120
3 125 126 127
3 125 128 129
3 130 131 128
3 126 132 133
3 129 134 132
3 128 135 134
3 136 137 138
3 139 140 136
3 139 141 142
3 140 143 137
3 142 144 140
3 142 145 146
3 133 123 119
3 132 147 123
3 144 148 143
3 144 135 131
3 122 149 121
3 124 141 122
3 147 145 124
3 134 150 147
3 146 150 135
3 54 151 55
3 58 116 54
3 59 114 58
3 60 117 59
3 116 152 151
3 115 153 152
3 121 154 153
3 155 46 48
3 156 127 155
3 157 125 156
3 157 148 130
3 127 49 46
3 49 133 50
3 50 119 60
3 158 159 160
3 161 138 158
3 162 136 161
3 162 149 139
3 138 163 159
3 137 164 163
3 143 165 164
3 166 167 168
3 169 170 166
3 171 172 169
3 170 173 167
3 172 174 170
3 175 176 172
3 177 178 179
3 180 181 178
3 182 183 181
3 179 184 185
3 178 186 184
3 181 187 186
3 188 189 190
3 191 192 188
3 191 193 194
3 192 195 189
3 194 196 192
3 194 197 198
3 185 175 171
3 184 199 175
3 196 200 195
3 198 183 196
3 174 201 173
3 176 193 174
3 199 197 176
3 186 202 199
3 198 202 187
3 159 203 160
3 163 168 159
3 164 166 163
3 165 169 164
3 168 204 203
3 167 205 204
3 173 206 205
3 48 177 155
3 111 180 177
3 112 182 180
3 113 200 182
3 155 179 156
3 156 185 157
3 157 171 165
3 207 103 105
3 208 190 207
3 209 188 208
3 209 201 191
3 190 106 103
3 189 107 106
3 195 108 107
3 0 4 1
3 3 6 4
3 5 33 6
3 4 8 7
3 6 10 8
3 6 33 9
3 11 15 12
3 11 16 14
3 16 34 17
3 12 15 18
3 15 14 20
3 14 17 21
3 22 26 23
3 25 28 26
3 27 31 28
3 26 30 29
3 28 32 30
3 31 35 32
3 19 18 33
3 18 20 9
3 30 17 34
3 32 21 17
3 7 8 31
3 8 10 35
3 10 9 36
3 20 21 36
3 32 35 36
3 37 2 38
3 40 0 2
3 41 3 0
3 42 5 3
3 2 1 43
3 1 7 44
3 44 7 27
3 46 13 47
3 49 11 13
3 49 50 16
3 50 60 34
3 13 12 51
3 12 19 52
3 52 19 5
3 53 24 54
3 56 22 24
3 57 25 22
3 45 27 25
3 24 23 58
3 23 29 59
3 29 34 60
3 61 65 62
3 64 67 65
3 66 70 67
3 65 69 68
3 67 71 69
3 70 95 71
3 72 76 73
3 75 78 76
3 77 81 78
3 76 80 79
3 78 82 80
3 81 96 82
3 83 86 84
3 86 88 87
3 88 97 89
3 85 84 90
3 84 87 92
3 87 89 93
3 79 80 70
3 80 82 95
3 91 90 81
3 90 92 96
3 69 89 97
3 71 93 89
3 95 98 93
3 82 96 98
3 92 93 98
3 99 63 37
3 100 61 63
3 101 64 61
3 102 66 64
3 63 62 40
3 62 68 41
3 68 97 42
3 103 74 104
3 106 72 74
3 107 75 72
3 108 77 75
3 74 73 109
3 73 79 110
3 110 79 94
3 48 47 83
3 47 51 86
3 51 52 88
3 52 42 97
3 111 83 85
3 112 85 91
3 113 91 77
3 114 118 115
3 117 120 118
3 119 123 120
3 118 122 121
3 120 124 122
3 123 147 124
3 125 129 126
3 125 130 128
3 130 148 131
3 126 129 132
3 129 128 134
3 128 131 135
3 136 140 137
3 139 142 140
3 139 149 141
3 140 144 143
3 142 146 144
3 142 141 145
3 133 132 123
3 132 134 147
3 144 131 148
3 144 146 135
3 122 141 149
3 124 145 141
3 147 150 145
3 134 135 150
3 146 145 150
3 54 116 151
3 58 114 116
3 59 117 114
3 60 119 117
3 116 115 152
3 115 121 153
3 121 149 154
3 155 127 46
3 156 125 127
3 157 130 125
3 157 165 148
3 127 126 49
3 49 126 133
3 50 133 119
3 158 138 159
3 161 136 138
3 162 139 136
3 162 154 149
3 138 137 163
3 137 143 164
3 143 148 165
3 166 170 167
3 169 172 170
3 171 175 172
3 170 174 173
3 172 176 174
3 175 199 176
3 177 180 178
3 180 182 181
3 182 200 183
3 179 178 184
3 178 181 186
3 181 183 187
3 188 192 189
3 191 194 192
3 191 201 193
3 192 196 195
3 194 198 196
3 194 193 197
3 185 184 175
3 184 186 199
3 196 183 200
3 198 187 183
3 174 193 201
3 176 197 193
3 199 202 197
3 186 187 202
3 198 197 202
3 159 168 203
3 163 166 168
3 164 169 166
3 165 171 169
3 168 167 204
3 167 173 205
3 173 201 206
3 48 111 177
3 111 112 180
3 112 113 182
3 113 108 200
3 155 177 179
3 156 179 185
3 157 185 171
3 207 190 103
3 208 188 190
3 209 191 188
3 209 206 201
3 190 189 106
3 189 195 107
3 195 200 108
