ply
format ascii 1.0
comment VCGLIB generated
element vertex 107
property float x
property float y
property float z
property float nx
property float ny
property float nz
property uchar red
property uchar green
property uchar blue
property uchar alpha
property float texture_u
property float texture_v
element face 67
property list uchar int vertex_indices
end_header
-0.084742 -1.762365 -0.079086 -0.6914159 -0.6540299 -0.3069024 255 255 255 255 0.866073 0.340572
-0.130931 -1.738878 -0.02502 -0.9147689 -0.403122 -0.0262762 255 255 255 255 0.858593 0.346407
-0.137946 -1.702899 -0.085946 -0.8719945 -0.4588253 -0.1706018 255 255 255 255 0.856275 0.337729
-0.087681 -1.74809 -0.102864 -0.6913462 -0.6539907 -0.3071426 255 255 255 255 0.865176 0.337131
-0.053624 -1.752157 -0.214566 -0.4907171 -0.8389712 -0.2352108 255 255 255 255 0.862857 0.336907
-0.048401 -1.78084 -0.12315 -0.4907205 -0.8389771 -0.2351825 255 255 255 255 0.862184 0.325238
-0.095634 -1.737511 -0.179159 -0.4907171 -0.8389712 -0.2352108 255 255 255 255 0.868168 0.332344
-0.090379 -1.735269 -0.198117 -0.4907498 -0.8389431 -0.2352426 255 255 255 255 0.867495 0.334812
-0.155626 -1.676399 -0.138865 -0.9914577 -0.1299783 -0.01083403 255 255 255 255 0.854704 0.330324
-0.15424 -1.687959 -0.103046 -0.9906689 -0.1361751 -0.005615045 255 255 255 255 0.854928 0.335111
-0.162907 -1.625952 -0.077904 -0.9924725 -0.1216783 -0.01388615 255 255 255 255 0.846476 0.336159
-0.168185 -1.576031 -0.122073 -0.9930544 -0.1168875 -0.01342817 255 255 255 255 0.841838 0.329127
-0.129077 -1.544044 0.098478 -0.9492104 -0.1691072 0.2653345 255 255 255 255 0.839370 0.323966
-0.159911 -1.471745 0.031728 -0.951004 -0.1629719 0.2627387 255 255 255 255 0.830918 0.314766
-0.178669 -1.494272 -0.050134 -0.9510013 -0.1629404 0.2627679 255 255 255 255 0.834733 0.304593
-0.162345 -1.624728 -0.07196 -0.9502008 -0.1630612 0.2655739 255 255 255 255 0.851487 0.303322
-0.116267 -1.613265 0.098415 -0.9465449 -0.1705703 0.2737857 255 255 255 255 0.848121 0.324789
-0.125766 -1.717416 0.003195 -0.9489834 -0.1612008 0.271007 255 255 255 255 0.862409 0.313869
-0.127349 -1.738563 -0.021393 -0.002686065 -0.9193012 0.3935455 255 255 255 255 0.857546 0.289484
-0.023744 -1.767058 -0.087024 -3.100041e-05 -0.9173072 0.3981803 255 255 255 255 0.870711 0.281106
0.000153 -1.767135 -0.087198 -0.002045061 -0.9189093 0.3944637 255 255 255 255 0.873778 0.281106
-0.069996 -1.762253 -0.133839 -0.6703206 -0.7420098 -0.009583165 255 255 255 255 0.858145 0.298386
-0.073184 -1.759596 -0.116629 -0.6703206 -0.7420098 -0.009583165 255 255 255 255 0.857546 0.300554
-0.136873 -1.702336 -0.095193 -0.6703206 -0.7420098 -0.009583165 255 255 255 255 0.849243 0.302574
-0.150657 -1.689696 -0.109662 -0.6703359 -0.7419959 -0.009583386 255 255 255 255 0.847673 0.300554
-0.150657 -1.68883 -0.176608 -0.6703362 -0.7419961 -0.009552388 255 255 255 255 0.848421 0.292102
-0.121312 -1.715109 -0.194707 -0.6703529 -0.7419814 -0.009522198 255 255 255 255 0.852310 0.290082
0.000153 -1.636154 0.2192 -0.0004580069 -0.9196589 0.3927179 255 255 255 255 0.873778 0.320077
-0.037076 -1.636154 0.2192 0 -0.9200988 0.3916864 255 255 255 255 0.868991 0.320077
-0.05244 -1.644892 0.198674 -0.0006710232 -0.9197989 0.3923896 255 255 255 255 0.867046 0.317459
-0.053624 -1.752157 -0.214566 0.0135504 -0.958462 -0.2848983 255 255 255 255 0.862857 0.336907
0.000153 -1.752159 -0.214552 3.100096e-05 -0.9607217 -0.2775136 255 255 255 255 0.855975 0.336907
-0.00671 -1.774437 -0.137432 0.0190443 -0.9574111 -0.2880996 255 255 255 255 0.856873 0.327033
-0.022231 -1.779709 -0.1228 0.04312378 -0.9527133 -0.3007954 255 255 255 255 0.858818 0.325238
-0.048401 -1.78084 -0.12315 0.04516855 -0.9524238 -0.3014114 255 255 255 255 0.862184 0.325238
-0.048743 -1.778482 -0.113338 0 -0.91728 0.398243 255 255 255 255 0.867495 0.277815
-0.032444 -1.778482 -0.113338 0 -0.9172909 0.3982177 255 255 255 255 0.869589 0.277815
-0.078815 -1.644859 0.19875 0 -0.9201147 0.391649 255 255 255 255 0.863680 0.317459
-0.133753 -1.702637 -0.015572 -0.9525201 -0.1440791 0.268229 255 255 255 255 0.853881 0.346331
-0.162907 -1.625952 -0.077904 -0.9659544 -0.2559925 0.03741652 255 255 255 255 0.846476 0.336159
-0.129982 -1.729797 -0.016771 -0.9525278 -0.1440802 0.2682011 255 255 255 255 0.857247 0.347079
-0.097526 -1.662307 0.1313 -0.9439507 -0.1716695 0.2819341 255 255 255 255 0.853956 0.329426
-0.101079 -1.638903 0.133654 -0.9439556 -0.1716394 0.2819356 255 255 255 255 0.850964 0.329501
-0.170573 -1.560514 -0.066966 -0.9933571 -0.1145672 -0.01077311 255 255 255 255 0.838098 0.335411
-0.171823 -1.547285 -0.092454 -0.9933535 -0.1145978 -0.01077307 255 255 255 255 0.837276 0.331820
-0.162907 -1.625952 -0.077904 -0.8091965 -0.3143521 0.4963705 255 255 255 255 0.846476 0.336159
-0.15424 -1.687959 -0.103046 -0.8091965 -0.3143521 0.4963705 255 255 255 255 0.854928 0.335111
-0.137946 -1.702899 -0.085946 -0.8091965 -0.3143521 0.4963705 255 255 255 255 0.856275 0.337729
0.000153 -1.774426 -0.137468 6.100189e-05 -0.9607217 -0.2775136 255 255 255 255 0.855975 0.327108
0.085049 -1.762365 -0.079086 0.6914159 -0.6540299 -0.3069024 255 255 255 255 0.377342 0.340700
0.087988 -1.74809 -0.102864 0.6913598 -0.6539735 -0.3071486 255 255 255 255 0.376445 0.337260
0.138253 -1.702899 -0.085946 0.8719945 -0.4588253 -0.1706018 255 255 255 255 0.367544 0.337857
0.131238 -1.738878 -0.02502 0.9147696 -0.4031224 -0.02624622 255 255 255 255 0.369862 0.346535
0.095941 -1.737511 -0.179159 0.4907171 -0.8389712 -0.2352108 255 255 255 255 0.379437 0.332472
0.048708 -1.78084 -0.12315 0.4907171 -0.8389712 -0.2352108 255 255 255 255 0.373453 0.325366
0.05393 -1.752157 -0.214566 0.4907171 -0.8389712 -0.2352108 255 255 255 255 0.374126 0.337035
0.090685 -1.735269 -0.198117 0.4907463 -0.8389372 -0.235271 255 255 255 255 0.378764 0.334941
0.155932 -1.676399 -0.138865 0.9914615 -0.1299489 -0.01083407 255 255 255 255 0.365973 0.330453
0.168492 -1.576031 -0.122073 0.9930544 -0.1168875 -0.01342817 255 255 255 255 0.353107 0.329255
0.163213 -1.625952 -0.077904 0.9924729 -0.1216783 -0.01385515 255 255 255 255 0.357745 0.336287
0.154547 -1.687959 -0.103046 0.9906731 -0.1361447 -0.005615069 255 255 255 255 0.366197 0.335240
0.129383 -1.544044 0.098478 0.9492104 -0.1691072 0.2653345 255 255 255 255 0.350639 0.324094
0.162651 -1.624728 -0.07196 0.9502008 -0.1630612 0.2655739 255 255 255 255 0.362756 0.303450
0.178975 -1.494272 -0.050134 0.9510013 -0.1629404 0.2627679 255 255 255 255 0.346002 0.304722
0.160217 -1.471745 0.031728 0.951004 -0.1629719 0.2627387 255 255 255 255 0.342187 0.314894
0.116574 -1.613265 0.098415 0.9465481 -0.1706009 0.2737556 255 255 255 255 0.359390 0.324917
0.126072 -1.717416 0.003195 0.9489788 -0.16123 0.2710057 255 255 255 255 0.373677 0.313997
0.127655 -1.738563 -0.021393 0.002686065 -0.9193012 0.3935455 255 255 255 255 0.368815 0.289612
0.000153 -1.767135 -0.087198 3.100041e-05 -0.9173072 0.3981803 255 255 255 255 0.385046 0.281234
0.024051 -1.767058 -0.087024 3.100091e-05 -0.917291 0.3982177 255 255 255 255 0.381980 0.281234
0.137179 -1.702336 -0.095193 0.6703206 -0.7420098 -0.009583165 255 255 255 255 0.360512 0.302702
0.07349 -1.759596 -0.116629 0.6703207 -0.74201 -0.009552168 255 255 255 255 0.368815 0.300682
0.070303 -1.762253 -0.133839 0.6703207 -0.74201 -0.009552168 255 255 255 255 0.369414 0.298514
0.121618 -1.715109 -0.194707 0.6703207 -0.74201 -0.009552168 255 255 255 255 0.363579 0.290211
0.150965 -1.68883 -0.176608 0.6703207 -0.74201 -0.009552168 255 255 255 255 0.359690 0.292230
0.150965 -1.689696 -0.109662 0.6702886 -0.7420387 -0.009583152 255 255 255 255 0.358942 0.300682
0.052747 -1.644892 0.198674 0.0006710232 -0.9197989 0.3923896 255 255 255 255 0.378314 0.317587
0.037383 -1.636154 0.2192 0 -0.9200988 0.3916864 255 255 255 255 0.380260 0.320205
0.000153 -1.636154 0.2192 0 -0.9200988 0.3916864 255 255 255 255 0.385046 0.320205
0.000153 -1.636154 0.2192 0.0006410152 -0.9195138 0.3930573 255 255 255 255 0.385046 0.320205
0.000153 -1.767135 -0.087198 0.0006410152 -0.9195138 0.3930573 255 255 255 255 0.385046 0.281234
0.007016 -1.774437 -0.137432 -0.01727312 -0.9577389 -0.28712 255 255 255 255 0.368142 0.327161
0.000153 -1.752159 -0.214552 -3.100096e-05 -0.9607217 -0.2775136 255 255 255 255 0.367244 0.337035
0.05393 -1.752157 -0.214566 -0.01348922 -0.9584184 -0.2850476 255 255 255 255 0.374126 0.337035
0.048708 -1.78084 -0.12315 -0.0430624 -0.9525528 -0.3013118 255 255 255 255 0.373453 0.325366
0.04905 -1.778482 -0.113338 0 -0.91728 0.398243 255 255 255 255 0.378764 0.277943
0.032751 -1.778482 -0.113338 0 -0.9172909 0.3982177 255 255 255 255 0.380858 0.277943
0.079121 -1.644859 0.19875 0 -0.9201147 0.391649 255 255 255 255 0.374949 0.317587
0.000153 -1.767135 -0.087198 0.00344906 -0.919691 0.3926278 255 255 255 255 0.385046 0.281234
0.13406 -1.702637 -0.015572 0.9525201 -0.1440791 0.268229 255 255 255 255 0.365150 0.346460
0.130288 -1.729797 -0.016771 0.9524791 -0.1441121 0.2683567 255 255 255 255 0.368516 0.347207
0.163213 -1.625952 -0.077904 0.9659618 -0.2559645 0.0374168 255 255 255 255 0.357745 0.336287
0.097831 -1.662307 0.1313 0.9439458 -0.1716986 0.2819326 255 255 255 255 0.365225 0.329555
0.101386 -1.638903 0.133654 0.943957 -0.1717316 0.281875 255 255 255 255 0.362233 0.329629
0.17088 -1.560514 -0.066966 0.9933571 -0.1145672 -0.01077311 255 255 255 255 0.349367 0.335539
0.172129 -1.547285 -0.092454 0.9933571 -0.1145672 -0.01077311 255 255 255 255 0.348545 0.331948
0.163213 -1.625952 -0.077904 0.8091841 -0.3143473 0.4963939 255 255 255 255 0.357745 0.336287
0.138253 -1.702899 -0.085946 0.8091841 -0.3143473 0.4963939 255 255 255 255 0.367544 0.337857
0.154547 -1.687959 -0.103046 0.8091841 -0.3143473 0.4963939 255 255 255 255 0.366197 0.335240
0.095388 -1.750468 -0.10309 0.6913462 -0.6539907 -0.3071426 255 255 255 255 0.292397 0.317652
0.092449 -1.764741 -0.079314 0.6913462 -0.6539907 -0.3071426 255 255 255 255 0.293968 0.320794
0.052833 -1.788727 -0.117412 0.6913462 -0.6539907 -0.3071426 255 255 255 255 0.299653 0.315707
0.000153 -1.774426 -0.137468 -6.100189e-05 -0.9607217 -0.2775136 255 255 255 255 0.367244 0.327236
0.000153 -1.752159 -0.214552 -6.100189e-05 -0.9607217 -0.2775136 255 255 255 255 0.367244 0.337035
0.048708 -1.78084 -0.12315 -0.04516727 -0.9541667 -0.2958477 255 255 255 255 0.373453 0.325366
0.022538 -1.779709 -0.1228 -0.04516727 -0.9541667 -0.2958477 255 255 255 255 0.370087 0.325366
0.007016 -1.774437 -0.137432 -0.04516727 -0.9541667 -0.2958477 255 255 255 255 0.368142 0.327161
3 0 1 2 
3 2 3 0 
3 4 5 6 
3 6 7 4 
3 8 9 10 
3 10 11 8 
3 12 13 14 
3 14 15 12 
3 16 12 15 
3 15 17 16 
3 18 19 20 
3 21 22 23 
3 23 24 25 
3 21 23 25 
3 21 25 26 
3 27 28 29 
3 29 20 27 
3 30 31 32 
3 30 32 33 
3 30 33 34 
3 35 36 19 
3 19 18 35 
3 29 37 18 
3 18 20 29 
3 38 39 1 
3 1 40 38 
3 16 17 41 
3 41 42 16 
3 11 10 43 
3 43 44 11 
3 45 46 47 
3 2 1 39 
3 32 31 48 
3 49 50 51 
3 51 52 49 
3 53 54 55 
3 55 56 53 
3 57 58 59 
3 59 60 57 
3 61 62 63 
3 63 64 61 
3 65 66 62 
3 62 61 65 
3 67 68 69 
3 70 71 72 
3 70 72 73 
3 70 73 74 
3 70 74 75 
3 76 77 78 
3 79 80 76 
3 81 82 83 
3 84 81 83 
3 85 67 69 
3 69 86 85 
3 67 87 76 
3 76 88 67 
3 89 90 52 
3 52 91 89 
3 92 66 65 
3 65 93 92 
3 94 59 58 
3 58 95 94 
3 96 97 98 
3 51 91 52 
3 99 100 101 
3 81 102 103 
3 104 105 106 
