ply
format ascii 1.0
comment VCGLIB generated
element vertex 107
property float x
property float y
property float z
property float nx
property float ny
property float nz
property uchar red
property uchar green
property uchar blue
property uchar alpha
property float texture_u
property float texture_v
element face 67
property list uchar int vertex_indices
end_header
-0.084742 -1.762365 -0.079086 0.6914251 0.6540197 0.3069035 255 255 255 255 0.866073 0.340572
-0.130931 -1.738878 -0.02502 0.9147628 0.4031346 0.02629675 255 255 255 255 0.858593 0.346407
-0.137946 -1.702899 -0.085946 0.8719881 0.4588321 0.1706165 255 255 255 255 0.856275 0.337729
-0.087681 -1.74809 -0.102864 0.691348 0.6539803 0.3071607 255 255 255 255 0.865176 0.337131
-0.053624 -1.752157 -0.214566 0.4907299 0.8389633 0.2352122 255 255 255 255 0.862857 0.336907
-0.048401 -1.78084 -0.12315 0.4907232 0.8389701 0.2352015 255 255 255 255 0.862184 0.325238
-0.095634 -1.737511 -0.179159 0.4907333 0.8389598 0.2352177 255 255 255 255 0.868168 0.332344
-0.090379 -1.735269 -0.198117 0.4907537 0.8389385 0.2352507 255 255 255 255 0.867495 0.334812
-0.155626 -1.676399 -0.138865 0.9914572 0.1299799 0.01085468 255 255 255 255 0.854704 0.330324
-0.15424 -1.687959 -0.103046 0.9906666 0.1361915 0.005619995 255 255 255 255 0.854928 0.335111
-0.162907 -1.625952 -0.077904 0.9924722 0.1216804 0.01388894 255 255 255 255 0.846476 0.336159
-0.168185 -1.576031 -0.122073 0.9930534 0.1168941 0.01343803 255 255 255 255 0.841838 0.329127
-0.129077 -1.544044 0.098478 0.949208 0.1691215 -0.2653342 255 255 255 255 0.839370 0.323966
-0.159911 -1.471745 0.031728 0.9509952 0.1629838 -0.262763 255 255 255 255 0.830918 0.314766
-0.178669 -1.494272 -0.050134 0.9509963 0.1629681 -0.2627686 255 255 255 255 0.834733 0.304593
-0.162345 -1.624728 -0.07196 0.9501941 0.1630652 -0.2655956 255 255 255 255 0.851487 0.303322
-0.116267 -1.613265 0.098415 0.946542 0.1705907 -0.2737828 255 255 255 255 0.848121 0.324789
-0.125766 -1.717416 0.003195 0.9489763 0.1612265 -0.2710168 255 255 255 255 0.862409 0.313869
-0.127349 -1.738563 -0.021393 0.002702342 0.9192954 -0.3935589 255 255 255 255 0.857546 0.289484
-0.023744 -1.767058 -0.087024 3.649922e-05 0.9172972 -0.3982033 255 255 255 255 0.870711 0.281106
0.000153 -1.767135 -0.087198 0.002053526 0.9189044 -0.3944751 255 255 255 255 0.873778 0.281106
-0.069996 -1.762253 -0.133839 0.6703344 0.7419971 0.009597635 255 255 255 255 0.858145 0.298386
-0.073184 -1.759596 -0.116629 0.6703342 0.7419971 0.009616319 255 255 255 255 0.857546 0.300554
-0.136873 -1.702336 -0.095193 0.6703323 0.741999 0.009600694 255 255 255 255 0.849243 0.302574
-0.150657 -1.689696 -0.109662 0.670338 0.7419938 0.009597576 255 255 255 255 0.847673 0.300554
-0.150657 -1.68883 -0.176608 0.6703373 0.7419948 0.009576106 255 255 255 255 0.848421 0.292102
-0.121312 -1.715109 -0.194707 0.6703469 0.7419866 0.00954099 255 255 255 255 0.852310 0.290082
0.000153 -1.636154 0.2192 0.0004773751 0.9196575 -0.3927213 255 255 255 255 0.873778 0.320077
-0.037076 -1.636154 0.2192 0 0.9200989 -0.3916861 255 255 255 255 0.868991 0.320077
-0.05244 -1.644892 0.198674 0.000683714 0.9197967 -0.3923947 255 255 255 255 0.867046 0.317459
-0.053624 -1.752157 -0.214566 -0.01356451 0.9584624 0.2848963 255 255 255 255 0.862857 0.336907
0.000153 -1.752159 -0.214552 -3.843784e-05 0.960719 0.2775231 255 255 255 255 0.855975 0.336907
-0.00671 -1.774437 -0.137432 -0.01905458 0.9574042 0.2881218 255 255 255 255 0.856873 0.327033
-0.022231 -1.779709 -0.1228 -0.04314204 0.9527102 0.3008024 255 255 255 255 0.858818 0.325238
-0.048401 -1.78084 -0.12315 -0.04519443 0.9524205 0.3014176 255 255 255 255 0.862184 0.325238
-0.048743 -1.778482 -0.113338 7.042709e-06 0.9172832 -0.3982355 255 255 255 255 0.867495 0.277815
-0.032444 -1.778482 -0.113338 0 0.9172856 -0.3982299 255 255 255 255 0.869589 0.277815
-0.078815 -1.644859 0.19875 2.325152e-05 0.9201134 -0.3916519 255 255 255 255 0.863680 0.317459
-0.133753 -1.702637 -0.015572 0.9525167 0.1440975 -0.2682309 255 255 255 255 0.853881 0.346331
-0.162907 -1.625952 -0.077904 0.9659539 0.2559933 -0.03742239 255 255 255 255 0.846476 0.336159
-0.129982 -1.729797 -0.016771 0.9525235 0.1440924 -0.2682093 255 255 255 255 0.857247 0.347079
-0.097526 -1.662307 0.1313 0.9439487 0.1716668 -0.2819421 255 255 255 255 0.853956 0.329426
-0.101079 -1.638903 0.133654 0.9439474 0.1716611 -0.2819498 255 255 255 255 0.850964 0.329501
-0.170573 -1.560514 -0.066966 0.9933547 0.114587 0.01078057 255 255 255 255 0.838098 0.335411
-0.171823 -1.547285 -0.092454 0.9933515 0.1146158 0.01077234 255 255 255 255 0.837276 0.331820
-0.162907 -1.625952 -0.077904 0.8091828 0.3143712 -0.4963809 255 255 255 255 0.846476 0.336159
-0.15424 -1.687959 -0.103046 0.8091828 0.3143712 -0.4963809 255 255 255 255 0.854928 0.335111
-0.137946 -1.702899 -0.085946 0.8091828 0.3143712 -0.4963809 255 255 255 255 0.856275 0.337729
0.000153 -1.774426 -0.137468 -7.949073e-05 0.9607199 0.2775198 255 255 255 255 0.855975 0.327108
0.085049 -1.762365 -0.079086 -0.6914251 0.6540197 0.3069036 255 255 255 255 0.377342 0.340700
0.087988 -1.74809 -0.102864 -0.6913478 0.6539804 0.3071609 255 255 255 255 0.376445 0.337260
0.138253 -1.702899 -0.085946 -0.8719918 0.4588264 0.1706125 255 255 255 255 0.367544 0.337857
0.131238 -1.738878 -0.02502 -0.914762 0.4031384 0.02626894 255 255 255 255 0.369862 0.346535
0.095941 -1.737511 -0.179159 -0.4907315 0.8389572 0.2352305 255 255 255 255 0.379437 0.332472
0.048708 -1.78084 -0.12315 -0.4907174 0.8389719 0.2352078 255 255 255 255 0.373453 0.325366
0.05393 -1.752157 -0.214566 -0.4907267 0.8389622 0.2352228 255 255 255 255 0.374126 0.337035
0.090685 -1.735269 -0.198117 -0.4907603 0.8389273 0.2352771 255 255 255 255 0.378764 0.334941
0.155932 -1.676399 -0.138865 -0.9914584 0.1299705 0.01086256 255 255 255 255 0.365973 0.330453
0.168492 -1.576031 -0.122073 -0.9930534 0.1168958 0.01343529 255 255 255 255 0.353107 0.329255
0.163213 -1.625952 -0.077904 -0.9924714 0.1216873 0.01388586 255 255 255 255 0.357745 0.336287
0.154547 -1.687959 -0.103046 -0.9906698 0.1361675 0.005640176 255 255 255 255 0.366197 0.335240
0.129383 -1.544044 0.098478 -0.9492098 0.1691151 -0.2653315 255 255 255 255 0.350639 0.324094
0.162651 -1.624728 -0.07196 -0.950195 0.1630648 -0.2655927 255 255 255 255 0.362756 0.303450
0.178975 -1.494272 -0.050134 -0.9509963 0.1629681 -0.2627686 255 255 255 255 0.346002 0.304722
0.160217 -1.471745 0.031728 -0.9509952 0.1629838 -0.262763 255 255 255 255 0.342187 0.314894
0.116574 -1.613265 0.098415 -0.9465409 0.1706008 -0.2737806 255 255 255 255 0.359390 0.324917
0.126072 -1.717416 0.003195 -0.9489748 0.1612354 -0.2710166 255 255 255 255 0.373677 0.313997
0.127655 -1.738563 -0.021393 -0.002702348 0.9192954 -0.393559 255 255 255 255 0.368815 0.289612
0.000153 -1.767135 -0.087198 -5.693824e-05 0.9173079 -0.3981785 255 255 255 255 0.385046 0.281234
0.024051 -1.767058 -0.087024 -3.64978e-05 0.9172972 -0.3982034 255 255 255 255 0.381980 0.281234
0.137179 -1.702336 -0.095193 -0.6703162 0.7420138 0.00958556 255 255 255 255 0.360512 0.302702
0.07349 -1.759596 -0.116629 -0.6703268 0.7420043 0.009574967 255 255 255 255 0.368815 0.300682
0.070303 -1.762253 -0.133839 -0.6703277 0.7420034 0.00957775 255 255 255 255 0.369414 0.298514
0.121618 -1.715109 -0.194707 -0.6703317 0.7419999 0.009580939 255 255 255 255 0.363579 0.290211
0.150965 -1.68883 -0.176608 -0.6703295 0.7420018 0.009583764 255 255 255 255 0.359690 0.292230
0.150965 -1.689696 -0.109662 -0.6702842 0.7420425 0.009598206 255 255 255 255 0.358942 0.300682
0.052747 -1.644892 0.198674 -0.0006837075 0.9197967 -0.3923947 255 255 255 255 0.378314 0.317587
0.037383 -1.636154 0.2192 0 0.9200989 -0.3916861 255 255 255 255 0.380260 0.320205
0.000153 -1.636154 0.2192 0 0.9200988 -0.3916861 255 255 255 255 0.385046 0.320205
0.000153 -1.636154 0.2192 -0.0006410971 0.9195057 -0.3930762 255 255 255 255 0.385046 0.320205
0.000153 -1.767135 -0.087198 -0.000641097 0.9195057 -0.3930761 255 255 255 255 0.385046 0.281234
0.007016 -1.774437 -0.137432 0.017287 0.9577326 0.2871402 255 255 255 255 0.368142 0.327161
0.000153 -1.752159 -0.214552 3.608127e-05 0.9607189 0.2775233 255 255 255 255 0.367244 0.337035
0.05393 -1.752157 -0.214566 0.01351331 0.9584159 0.2850552 255 255 255 255 0.374126 0.337035
0.048708 -1.78084 -0.12315 0.04306751 0.9525453 0.3013347 255 255 255 255 0.373453 0.325366
0.04905 -1.778482 -0.113338 -7.042739e-06 0.9172832 -0.3982355 255 255 255 255 0.378764 0.277943
0.032751 -1.778482 -0.113338 0 0.9172856 -0.3982299 255 255 255 255 0.380858 0.277943
0.079121 -1.644859 0.19875 -2.325239e-05 0.9201134 -0.3916519 255 255 255 255 0.374949 0.317587
0.000153 -1.767135 -0.087198 -0.003450191 0.9196871 -0.3926369 255 255 255 255 0.385046 0.281234
0.13406 -1.702637 -0.015572 -0.9525156 0.1440983 -0.2682346 255 255 255 255 0.365150 0.346460
0.130288 -1.729797 -0.016771 -0.9524772 0.1441269 -0.2683555 255 255 255 255 0.368516 0.347207
0.163213 -1.625952 -0.077904 -0.9659562 0.2559848 -0.03742364 255 255 255 255 0.357745 0.336287
0.097831 -1.662307 0.1313 -0.9439436 0.1717085 -0.2819341 255 255 255 255 0.365225 0.329555
0.101386 -1.638903 0.133654 -0.9439498 0.1717366 -0.2818958 255 255 255 255 0.362233 0.329629
0.17088 -1.560514 -0.066966 -0.9933558 0.1145773 0.01078336 255 255 255 255 0.349367 0.335539
0.172129 -1.547285 -0.092454 -0.9933569 0.1145678 0.01078608 255 255 255 255 0.348545 0.331948
0.163213 -1.625952 -0.077904 -0.8091818 0.3143611 -0.4963888 255 255 255 255 0.357745 0.336287
0.138253 -1.702899 -0.085946 -0.8091819 0.3143611 -0.4963889 255 255 255 255 0.367544 0.337857
0.154547 -1.687959 -0.103046 -0.8091818 0.3143611 -0.4963888 255 255 255 255 0.366197 0.335240
0.095388 -1.750468 -0.10309 -0.6913428 0.6539953 0.3071404 255 255 255 255 0.292397 0.317652
0.092449 -1.764741 -0.079314 -0.6913428 0.6539953 0.3071404 255 255 255 255 0.293968 0.320794
0.052833 -1.788727 -0.117412 -0.6913428 0.6539953 0.3071404 255 255 255 255 0.299653 0.315707
0.000153 -1.774426 -0.137468 7.947154e-05 0.9607199 0.2775198 255 255 255 255 0.367244 0.327236
0.000153 -1.752159 -0.214552 7.947154e-05 0.9607199 0.2775198 255 255 255 255 0.367244 0.337035
0.048708 -1.78084 -0.12315 0.04519535 0.9541649 0.2958492 255 255 255 255 0.373453 0.325366
0.022538 -1.779709 -0.1228 0.04519535 0.9541649 0.2958492 255 255 255 255 0.370087 0.325366
0.007016 -1.774437 -0.137432 0.04519535 0.9541648 0.2958492 255 255 255 255 0.368142 0.327161
3 1 0 2 
3 3 2 0 
3 5 4 6 
3 7 6 4 
3 9 8 10 
3 11 10 8 
3 13 12 14 
3 15 14 12 
3 12 16 15 
3 17 15 16 
3 19 18 20 
3 22 21 23 
3 24 23 25 
3 23 21 25 
3 25 21 26 
3 28 27 29 
3 20 29 27 
3 31 30 32 
3 32 30 33 
3 33 30 34 
3 36 35 19 
3 18 19 35 
3 37 29 18 
3 20 18 29 
3 39 38 1 
3 40 1 38 
3 17 16 41 
3 42 41 16 
3 10 11 43 
3 44 43 11 
3 46 45 47 
3 1 2 39 
3 31 32 48 
3 50 49 51 
3 52 51 49 
3 54 53 55 
3 56 55 53 
3 58 57 59 
3 60 59 57 
3 62 61 63 
3 64 63 61 
3 66 65 62 
3 61 62 65 
3 68 67 69 
3 71 70 72 
3 72 70 73 
3 73 70 74 
3 74 70 75 
3 77 76 78 
3 80 79 76 
3 82 81 83 
3 81 84 83 
3 67 85 69 
3 86 69 85 
3 87 67 76 
3 88 76 67 
3 90 89 52 
3 91 52 89 
3 66 92 65 
3 93 65 92 
3 59 94 58 
3 95 58 94 
3 97 96 98 
3 91 51 52 
3 100 99 101 
3 102 81 103 
3 105 104 106 
