ply
format ascii 1.0
comment Created by Blender 2.93.5 - www.blender.org
element vertex 251
property float x
property float y
property float z
property float nx
property float ny
property float nz
property float s
property float t
element face 340
property list uchar uint vertex_indices
end_header
0.214075 -1.932071 3.046010 0.698080 -0.227454 0.678884 0.157998 0.926266
0.222191 -2.057802 2.981173 0.920560 0.341197 -0.190008 0.157998 0.926266
0.214075 -1.922524 3.016761 0.698080 0.216834 -0.682363 0.157998 0.926266
0.214075 -2.292669 2.928309 0.698080 -0.216834 0.682363 0.157998 0.926266
0.222191 -2.152898 2.950133 0.920560 -0.163396 -0.354717 0.157998 0.926266
0.222191 -2.157391 2.963897 0.920560 -0.341197 0.190008 0.157998 0.926266
0.214075 -2.008781 3.135148 0.698080 -0.583056 0.415540 0.157998 0.926266
0.156326 -2.071525 3.041276 0.216346 -0.496902 0.840388 0.157998 0.926266
0.222191 -2.084114 3.017286 0.920560 -0.076296 0.383007 0.157998 0.926266
0.214075 -2.231716 3.116764 0.698080 -0.575365 -0.426130 0.157998 0.926266
0.222191 -2.131199 3.017222 0.920560 0.075259 0.383221 0.157998 0.926266
0.214075 -2.206848 3.134883 0.698080 0.581957 0.417096 0.157998 0.926266
0.214075 -2.008344 2.810186 0.698080 -0.581957 -0.417096 0.157998 0.926266
0.222191 -2.072292 2.936372 0.920560 0.387860 -0.045778 0.157998 0.926266
0.222191 -2.083993 2.927847 0.920560 -0.075259 -0.383221 0.157998 0.926266
0.214075 -2.123235 3.162174 0.698080 -0.715964 -0.006531 0.157998 0.926266
0.156326 -2.118819 3.049351 0.216315 -0.895962 0.387799 0.157998 0.926266
0.222191 -2.114902 3.022542 0.920560 -0.286874 0.265023 0.157998 0.926266
0.156326 -2.037916 2.938310 0.216315 0.094546 -0.971709 0.157998 0.926266
0.222191 -2.062235 2.950255 0.920560 0.164342 -0.354259 0.157998 0.926266
0.222191 -2.072389 3.008791 0.920560 0.387738 0.046815 0.157998 0.926266
0.214075 -1.983865 3.117097 0.698080 0.576525 -0.424574 0.157998 0.926266
0.214075 -2.206412 2.809921 0.698080 0.583056 -0.415540 0.157998 0.926266
0.222191 -2.142804 2.936278 0.920560 -0.387738 -0.046815 0.157998 0.926266
0.214075 -2.231328 2.827972 0.698080 -0.576525 0.424574 0.157998 0.926266
0.214075 -2.283122 2.899060 0.698080 0.227454 -0.678884 0.157998 0.926266
0.156326 -2.177185 2.938124 0.216315 -0.091952 -0.971954 0.157998 0.926266
0.214075 -2.091958 2.782895 0.698080 0.715964 0.006531 0.157998 0.926266
0.156326 -2.096373 2.895718 0.216315 0.895962 -0.387799 0.157998 0.926266
0.222191 -2.100290 2.922528 0.920560 0.286874 -0.265023 0.157998 0.926266
0.214075 -1.922406 2.928806 0.698080 0.215003 0.682943 0.157998 0.926266
0.214075 -1.931874 2.899531 0.698080 -0.225623 -0.679495 0.157998 0.926266
0.214075 -2.292787 3.016263 0.698080 -0.215003 -0.682943 0.157998 0.926266
0.222191 -2.152958 2.994814 0.920560 -0.164342 0.354289 0.157998 0.926266
0.214075 -2.283319 3.045538 0.698080 0.225623 0.679495 0.157998 0.926266
0.156326 -2.184085 2.959266 0.216346 -0.647664 0.730522 0.157998 0.926266
0.114256 -2.294279 2.933242 0.051790 -0.248207 0.967315 0.157998 0.926266
0.222191 -2.100424 3.022561 0.920560 0.286142 0.265786 0.157998 0.926266
0.214075 -2.092467 3.162216 0.698080 0.715964 -0.004608 0.157998 0.926266
0.222191 -2.114769 2.922508 0.920560 -0.286142 -0.265786 0.157998 0.926266
0.214075 -2.122726 2.782853 0.698080 -0.715964 0.004608 0.157998 0.926266
0.222191 -2.057779 2.964030 0.920560 0.340678 0.190924 0.157998 0.926266
0.156326 -2.031107 2.985804 0.216315 0.647664 -0.730552 0.157998 0.926266
0.222191 -2.107596 2.972535 1.000000 0.000000 0.000000 0.157998 0.926266
0.222191 -2.157414 2.981039 0.920560 -0.340678 -0.190924 0.157998 0.926266
0.222191 -2.062295 2.994936 0.920560 0.163396 0.354717 0.157998 0.926266
0.222191 -2.142901 3.008697 0.920560 -0.387860 0.045778 0.157998 0.926266
0.222191 -2.131079 2.927783 0.920560 0.076296 -0.383038 0.157998 0.926266
0.156326 -2.143852 3.041180 0.216346 0.494644 0.841731 0.157998 0.926266
0.114256 -2.202655 3.137938 0.051790 0.843257 0.534989 0.157998 0.926266
0.156326 -2.118613 2.895689 0.216315 -0.894925 -0.390210 0.157998 0.926266
0.114256 -2.127914 2.782846 0.051790 -0.996673 0.062838 0.157998 0.926266
0.156326 -2.038008 3.006946 0.216315 0.091952 0.971954 0.157998 0.926266
0.156326 -2.053515 3.028229 0.216315 0.953368 -0.210334 0.157998 0.926266
0.156326 -2.143668 2.903793 0.216315 0.496902 -0.840388 0.157998 0.926266
0.156326 -2.177277 3.006759 0.216346 -0.094546 0.971709 0.157998 0.926266
0.114256 -2.281722 3.050475 0.051790 0.367748 0.928465 0.157998 0.926266
0.156326 -2.096580 3.049381 0.216315 0.894925 0.390210 0.157998 0.926266
0.114256 -2.087278 3.162223 0.051790 0.996673 -0.062807 0.157998 0.926266
0.114256 -1.933470 2.894594 0.051790 -0.367748 -0.928465 0.157998 0.926266
0.156326 -2.071340 2.903889 0.216346 -0.494644 -0.841731 0.157998 0.926266
0.156326 -2.161678 2.916840 0.216315 -0.953368 0.210334 0.157998 0.926266
0.114256 -2.235530 2.831016 0.051790 -0.769372 0.636647 0.157998 0.926266
0.156326 -2.161827 3.028083 0.216315 -0.952818 -0.212897 0.157998 0.926266
0.114256 -2.012538 2.807131 0.051790 -0.843257 -0.534989 0.157998 0.926266
0.214075 -1.983477 2.828305 0.698080 0.575365 0.426099 0.157998 0.926266
0.156326 -2.053365 2.916986 0.216315 0.952818 0.212867 0.157998 0.926266
0.156326 -2.031072 2.959471 0.216315 0.645711 0.732261 0.157998 0.926266
0.156326 -2.184121 2.985598 0.216315 -0.645680 -0.732292 0.157998 0.926266
0.114256 -1.920914 3.011828 0.051790 0.248207 -0.967315 0.157998 0.926266
0.114256 -1.979663 3.114053 0.051790 0.769372 -0.636647 0.157998 0.926266
0.229832 -1.782475 2.972534 0.678854 0.734245 0.000000 0.103011 0.959979
-0.019787 -1.793554 2.888387 -0.680746 0.707541 -0.189581 0.103011 0.959979
-0.019787 -1.782475 2.972534 -0.680746 0.732505 0.000000 0.103011 0.959979
0.229832 -1.826033 2.809974 0.678854 0.635853 -0.367107 0.103011 0.959979
-0.019787 -1.826033 2.809974 -0.680746 0.634358 -0.366253 0.103011 0.959979
0.229832 -1.877701 2.742639 0.678854 0.519181 -0.519181 0.103011 0.959979
-0.019787 -1.877701 2.742639 -0.680746 0.517960 -0.517960 0.103011 0.959979
-0.019787 -1.945036 2.690971 -0.680746 0.366253 -0.634358 0.103011 0.959979
0.229832 -1.945036 2.690971 0.678854 0.367107 -0.635853 0.103011 0.959979
-0.019787 -2.023449 2.658492 -0.680746 0.189581 -0.707541 0.103011 0.959979
0.229832 -2.023449 2.658492 0.678854 0.190039 -0.709220 0.103011 0.959979
-0.019787 -2.107596 2.647413 -0.680746 0.000000 -0.732505 0.103011 0.959979
0.229832 -2.107596 2.647413 0.678854 0.000000 -0.734245 0.103011 0.959979
-0.019787 -2.191744 2.658492 -0.680746 -0.189581 -0.707541 0.103011 0.959979
0.229832 -2.191744 2.658492 0.678854 -0.190039 -0.709220 0.103011 0.959979
-0.019787 -2.270157 2.690971 -0.680746 -0.366253 -0.634358 0.103011 0.959979
0.229832 -2.270157 2.690971 0.678854 -0.367107 -0.635853 0.103011 0.959979
-0.019787 -2.337492 2.742639 -0.680746 -0.517960 -0.517960 0.103011 0.959979
0.229832 -2.389159 2.809974 0.678854 -0.635853 -0.367107 0.103011 0.959979
-0.019787 -2.389159 2.809974 -0.680746 -0.634358 -0.366253 0.103011 0.959979
0.229832 -2.421639 2.888387 0.678854 -0.709220 -0.190008 0.103011 0.959979
-0.019787 -2.421639 2.888387 -0.680746 -0.707541 -0.189581 0.103011 0.959979
0.229832 -2.432717 2.972534 0.678854 -0.734245 0.000000 0.103011 0.959979
-0.019787 -2.432717 2.972534 -0.680746 -0.732505 0.000000 0.103011 0.959979
-0.019787 -2.421639 3.056682 -0.680746 -0.707541 0.189581 0.103011 0.959979
0.229832 -2.421639 3.056682 0.678854 -0.709220 0.190008 0.103011 0.959979
-0.019787 -2.389159 3.135095 -0.680746 -0.634358 0.366253 0.103011 0.959979
0.229832 -2.389159 3.135095 0.678854 -0.635884 0.367107 0.103011 0.959979
-0.019787 -2.337492 3.202430 -0.680746 -0.517960 0.517960 0.103011 0.959979
0.229832 -2.337492 3.202430 0.678854 -0.519181 0.519181 0.103011 0.959979
-0.019787 -2.270157 3.254097 -0.680746 -0.366253 0.634358 0.103011 0.959979
0.229832 -2.270157 3.254097 0.678854 -0.367107 0.635853 0.103011 0.959979
-0.019787 -2.191744 3.286577 -0.680746 -0.189581 0.707541 0.103011 0.959979
0.229832 -2.107596 3.297655 0.678854 0.000000 0.734245 0.103011 0.959979
-0.019787 -2.107596 3.297655 -0.680746 0.000000 0.732505 0.103011 0.959979
-0.019787 -2.023449 3.286577 -0.680746 0.189581 0.707541 0.103011 0.959979
0.229832 -2.023449 3.286577 0.678854 0.190008 0.709220 0.103011 0.959979
-0.019787 -1.945036 3.254097 -0.680746 0.366253 0.634358 0.103011 0.959979
0.229832 -1.945036 3.254097 0.678854 0.367107 0.635853 0.103011 0.959979
-0.019787 -1.877701 3.202430 -0.680746 0.517960 0.517960 0.103011 0.959979
0.229832 -1.877701 3.202430 0.678854 0.519181 0.519181 0.103011 0.959979
-0.019787 -1.826033 3.135095 -0.680746 0.634358 0.366253 0.103011 0.959979
-0.017984 -2.107596 2.972534 -1.000000 0.000000 0.000000 0.103011 0.959979
0.229832 -1.793554 3.056682 0.678854 0.709220 0.190008 0.103011 0.959979
-0.019787 -1.793554 3.056682 -0.680746 0.707541 0.189581 0.103011 0.959979
0.229832 -2.233937 3.098875 0.737693 0.477371 -0.477371 0.157998 0.926266
0.077009 -2.196933 3.127269 0.678854 0.367107 -0.635853 0.157998 0.926266
0.229832 -2.196933 3.127269 0.737693 0.337535 -0.584674 0.157998 0.926266
0.229832 -1.957029 2.821967 1.000000 0.000000 0.000000 0.157998 0.926266
0.229832 -2.018260 2.817800 0.737693 -0.337535 0.584674 0.157998 0.926266
0.229832 -2.001129 2.788128 1.000000 0.000000 0.000000 0.157998 0.926266
0.229832 -2.313275 3.027646 1.000000 0.000000 0.000000 0.157998 0.926266
0.229832 -2.286269 2.972534 0.737693 0.675100 0.000000 0.157998 0.926266
0.229832 -2.280180 3.018778 0.737693 0.652120 -0.174718 0.157998 0.926266
0.229832 -1.957029 3.123102 1.000000 0.000000 0.000000 0.157998 0.926266
0.229832 -1.952862 3.061870 0.737693 -0.584674 -0.337535 0.157998 0.926266
0.229832 -1.923190 3.079002 1.000000 0.000000 0.000000 0.157998 0.926266
0.229832 -2.258164 2.821967 1.000000 0.000000 0.000000 0.157998 0.926266
0.229832 -2.196933 2.817800 0.737693 0.337535 0.584674 0.157998 0.926266
0.229832 -2.233937 2.846194 0.737693 0.477371 0.477371 0.157998 0.926266
0.229832 -2.162708 3.178213 1.000000 0.000000 0.000000 0.157998 0.926266
0.229832 -2.107596 3.151206 0.737693 0.000000 -0.675100 0.157998 0.926266
0.229832 -2.107596 3.185469 1.000000 0.000000 0.000000 0.157998 0.926266
0.229832 -2.061353 2.799950 0.737693 -0.174718 0.652120 0.157998 0.926266
0.229832 -2.052485 2.766855 1.000000 0.000000 0.000000 0.157998 0.926266
0.229832 -2.262331 3.061870 0.737693 0.584674 -0.337535 0.157998 0.926266
0.229832 -2.292003 3.079001 1.000000 0.000000 0.000000 0.157998 0.926266
0.229832 -1.935012 3.018778 0.737693 -0.652120 -0.174718 0.157998 0.926266
0.229832 -1.901917 3.027646 1.000000 0.000000 0.000000 0.157998 0.926266
0.229832 -1.901917 2.917423 1.000000 0.000000 0.000000 0.157998 0.926266
0.229832 -1.928924 2.972534 0.737693 -0.675100 0.000000 0.157998 0.926266
0.229832 -1.935012 2.926291 0.737693 -0.652120 0.174718 0.157998 0.926266
0.229832 -2.262331 2.883198 0.737693 0.584674 0.337535 0.157998 0.926266
0.229832 -2.292003 2.866067 1.000000 0.000000 0.000000 0.157998 0.926266
0.229832 -2.052485 3.178213 1.000000 0.000000 0.000000 0.157998 0.926266
0.229832 -2.061353 3.145118 0.737693 -0.174718 -0.652120 0.157998 0.926266
0.229832 -2.107596 2.793862 0.737693 0.000000 0.675100 0.157998 0.926266
0.229832 -2.107596 2.759600 0.999969 0.000000 0.000000 0.157998 0.926266
0.229832 -2.258164 3.123102 1.000000 0.000000 0.000000 0.157998 0.926266
0.229832 -1.894662 2.972534 1.000000 0.000000 0.000000 0.157998 0.926266
0.229832 -1.923190 2.866067 1.000000 0.000000 0.000000 0.157998 0.926266
0.229832 -1.952862 2.883198 0.737693 -0.584674 0.337535 0.157998 0.926266
0.229832 -2.280180 2.926291 0.737693 0.652120 0.174718 0.157998 0.926266
0.229832 -2.313275 2.917423 1.000000 0.000000 0.000000 0.157998 0.926266
0.229832 -2.001129 3.156941 1.000000 0.000000 0.000000 0.157998 0.926266
0.229832 -2.018260 3.127269 0.737693 -0.337565 -0.584674 0.157998 0.926266
0.229832 -2.162708 2.766855 1.000000 0.000000 0.000000 0.157998 0.926266
0.229832 -2.153840 2.799950 0.737693 0.174718 0.652120 0.157998 0.926266
0.229832 -2.214064 3.156941 1.000000 0.000000 0.000000 0.157998 0.926266
0.229832 -1.981256 2.846194 0.737693 -0.477371 0.477371 0.157998 0.926266
0.229832 -2.320531 2.972534 1.000000 0.000000 0.000000 0.157998 0.926266
0.229832 -1.981256 3.098875 0.737693 -0.477371 -0.477371 0.157998 0.926266
0.229832 -2.214064 2.788128 1.000000 0.000000 0.000000 0.157998 0.926266
0.229832 -2.153840 3.145118 0.737693 0.174718 -0.652120 0.157998 0.926266
0.077009 -1.952862 3.061870 0.678854 -0.635853 -0.367107 0.103011 0.959979
0.077009 -1.981256 3.098875 0.678854 -0.519181 -0.519181 0.103011 0.959979
0.077010 -2.107596 2.972534 1.000000 0.000000 0.000000 0.103011 0.959979
0.077010 -2.061353 2.799950 0.678854 -0.190039 0.709220 0.157998 0.926266
0.077009 -2.018260 3.127269 0.678854 -0.367107 -0.635853 0.157998 0.926266
0.077010 -2.196933 2.817800 0.678854 0.367107 0.635853 0.157998 0.926266
0.077010 -2.233937 2.846194 0.678854 0.519181 0.519181 0.157998 0.926266
0.077010 -1.928924 2.972534 0.678854 -0.734245 0.000000 0.157998 0.926266
0.077010 -2.286269 2.972534 0.678854 0.734245 0.000000 0.157998 0.926266
0.077009 -2.280180 3.018778 0.678854 0.709220 -0.190008 0.157998 0.926266
0.077010 -1.952862 2.883198 0.678854 -0.635884 0.367107 0.157998 0.926266
0.077009 -2.153840 3.145118 0.678854 0.190039 -0.709220 0.157998 0.926266
0.077010 -2.107596 2.793862 0.678854 0.000000 0.734245 0.157998 0.926266
0.077009 -1.981256 3.098875 0.678854 -0.519181 -0.519181 0.157998 0.926266
0.077010 -2.262331 2.883198 0.678854 0.635853 0.367107 0.157998 0.926266
0.077009 -2.262331 3.061870 0.678854 0.635853 -0.367107 0.157998 0.926266
0.077010 -1.981256 2.846194 0.678854 -0.519181 0.519181 0.157998 0.926266
0.077009 -2.107596 3.151206 0.678854 0.000000 -0.734245 0.157998 0.926266
0.077010 -2.153840 2.799950 0.678854 0.190039 0.709220 0.157998 0.926266
0.077009 -1.952862 3.061870 0.678854 -0.635853 -0.367107 0.157998 0.926266
0.077010 -2.280180 2.926291 0.678854 0.709220 0.190039 0.157998 0.926266
0.077009 -2.233937 3.098875 0.678854 0.519181 -0.519181 0.157998 0.926266
0.077010 -2.018260 2.817800 0.678854 -0.367107 0.635853 0.157998 0.926266
0.077009 -2.061353 3.145118 0.678854 -0.190008 -0.709220 0.157998 0.926266
0.077009 -1.935012 3.018778 0.678854 -0.709220 -0.190008 0.157998 0.926266
0.077010 -1.935012 2.926291 0.678854 -0.709220 0.190008 0.157998 0.926266
0.229832 -2.162708 3.178213 1.000000 0.000000 0.000000 0.103011 0.959979
0.229832 -2.191744 3.286577 0.678854 -0.190008 0.709220 0.103011 0.959979
0.229832 -2.214064 2.788128 1.000000 0.000000 0.000000 0.103011 0.959979
0.229832 -2.001129 3.156941 1.000000 0.000000 0.000000 0.103011 0.959979
0.229832 -1.957029 3.123102 1.000000 0.000000 0.000000 0.103011 0.959979
0.229832 -2.320531 2.972534 1.000000 0.000000 0.000000 0.103011 0.959979
0.229832 -1.957029 2.821967 1.000000 0.000000 0.000000 0.103011 0.959979
0.229832 -2.214064 3.156941 1.000000 0.000000 0.000000 0.103011 0.959979
0.229832 -2.107596 2.759600 0.999969 0.000000 0.000000 0.103011 0.959979
0.229832 -2.162708 2.766855 1.000000 0.000000 0.000000 0.103011 0.959979
0.229832 -2.052485 3.178213 1.000000 0.000000 0.000000 0.103011 0.959979
0.229832 -2.292003 2.866067 1.000000 0.000000 0.000000 0.103011 0.959979
0.229832 -2.313275 2.917423 1.000000 0.000000 0.000000 0.103011 0.959979
0.229832 -1.901917 2.917423 1.000000 0.000000 0.000000 0.103011 0.959979
0.229832 -1.923190 2.866067 1.000000 0.000000 0.000000 0.103011 0.959979
0.229832 -1.894662 2.972534 1.000000 0.000000 0.000000 0.103011 0.959979
0.229832 -2.258164 3.123102 1.000000 0.000000 0.000000 0.103011 0.959979
0.229832 -2.258164 2.821967 1.000000 0.000000 0.000000 0.103011 0.959979
0.229832 -1.793554 2.888387 0.678854 0.709220 -0.190008 0.103011 0.959979
0.229832 -1.923190 3.079002 1.000000 0.000000 0.000000 0.103011 0.959979
0.229832 -1.901917 3.027646 1.000000 0.000000 0.000000 0.103011 0.959979
0.229832 -2.292003 3.079001 1.000000 0.000000 0.000000 0.103011 0.959979
0.229832 -2.001129 2.788128 1.000000 0.000000 0.000000 0.103011 0.959979
0.229832 -2.052485 2.766855 1.000000 0.000000 0.000000 0.103011 0.959979
0.229832 -2.107596 3.185469 1.000000 0.000000 0.000000 0.103011 0.959979
0.229832 -2.337492 2.742639 0.678854 -0.519181 -0.519181 0.103011 0.959979
0.229832 -1.826033 3.135095 0.678854 0.635853 0.367107 0.103011 0.959979
0.229832 -2.313275 3.027646 1.000000 0.000000 0.000000 0.103011 0.959979
0.077009 -2.233937 3.098875 0.678854 0.519181 -0.519181 0.103011 0.959979
0.077009 -2.262331 3.061870 0.678854 0.635853 -0.367107 0.103011 0.959979
0.077010 -2.196933 2.817800 0.678854 0.367107 0.635853 0.103011 0.959979
0.077010 -2.153840 2.799950 0.678854 0.190039 0.709220 0.103011 0.959979
0.077009 -1.935012 3.018778 0.678854 -0.709220 -0.190008 0.103011 0.959979
0.077010 -1.935012 2.926291 0.678854 -0.709220 0.190008 0.103011 0.959979
0.077010 -1.928924 2.972534 0.678854 -0.734245 0.000000 0.103011 0.959979
0.077009 -2.196933 3.127269 0.678854 0.367107 -0.635853 0.103011 0.959979
0.077010 -2.233937 2.846194 0.678854 0.519181 0.519181 0.103011 0.959979
0.077010 -1.952862 2.883198 0.678854 -0.635884 0.367107 0.103011 0.959979
0.077009 -2.153840 3.145118 0.678854 0.190039 -0.709220 0.103011 0.959979
0.077010 -2.262331 2.883198 0.678854 0.635853 0.367107 0.103011 0.959979
0.077010 -1.981256 2.846194 0.678854 -0.519181 0.519181 0.103011 0.959979
0.077009 -2.107596 3.151206 0.678854 0.000000 -0.734245 0.103011 0.959979
0.077010 -2.280180 2.926291 0.678854 0.709220 0.190039 0.103011 0.959979
0.077010 -2.018260 2.817800 0.678854 -0.367107 0.635853 0.103011 0.959979
0.077009 -2.061353 3.145118 0.678854 -0.190008 -0.709220 0.103011 0.959979
0.077010 -2.286269 2.972534 0.678854 0.734245 0.000000 0.103011 0.959979
0.077010 -2.061353 2.799950 0.678854 -0.190039 0.709220 0.103011 0.959979
0.077009 -2.018260 3.127269 0.678854 -0.367107 -0.635853 0.103011 0.959979
0.077009 -2.280180 3.018778 0.678854 0.709220 -0.190008 0.103011 0.959979
0.077010 -2.107596 2.793862 0.678854 0.000000 0.734245 0.103011 0.959979
0.114256 -2.012983 3.138192 0.051790 -0.844691 0.532731 0.157998 0.926266
0.114256 -2.128423 3.162167 0.051790 -0.996490 -0.065493 0.157998 0.926266
0.114256 -2.281512 2.894127 0.051790 0.370220 -0.927458 0.157998 0.926266
0.114256 -2.086769 2.782902 0.051790 0.996490 0.065493 0.157998 0.926266
0.114256 -2.202210 2.806877 0.051790 0.844691 -0.532731 0.157998 0.926266
0.114256 -2.235909 3.113708 0.051790 -0.767663 -0.638722 0.157998 0.926266
0.114256 -1.979283 2.831361 0.051790 0.767663 0.638722 0.157998 0.926266
0.114256 -1.920809 2.933743 0.051790 0.245613 0.967956 0.157998 0.926266
0.114256 -2.294384 3.011327 0.051790 -0.245613 -0.967956 0.157998 0.926266
0.114256 -1.933681 3.050942 0.051790 -0.370220 0.927458 0.157998 0.926266
3 0 1 2
3 3 4 5
3 6 7 8
3 9 10 11
3 12 13 14
3 15 16 17
3 13 18 19
3 6 20 21
3 22 23 24
3 25 26 4
3 27 28 29
3 30 19 31
3 32 33 34
3 3 35 36
3 15 37 38
3 27 39 40
3 41 42 1
3 14 13 43
3 19 41 43
3 33 44 43
3 1 45 43
3 29 14 43
3 46 33 43
3 5 4 43
3 44 5 43
3 20 8 43
3 41 1 43
3 13 19 43
3 23 47 43
3 4 23 43
3 37 17 43
3 39 29 43
3 10 46 43
3 45 20 43
3 47 39 43
3 17 10 43
3 8 37 43
3 11 48 49
3 44 35 5
3 40 50 51
3 20 52 53
3 22 54 47
3 34 55 56
3 38 57 58
3 31 18 59
3 29 60 14
3 24 61 62
3 9 63 46
3 23 26 61
3 46 55 33
3 12 60 64
3 65 66 13
3 39 54 50
3 30 67 41
3 17 48 10
3 32 68 44
3 2 42 69
3 37 7 57
3 21 53 70
3 0 52 45
3 71 72 73
3 72 74 75
3 75 76 77
3 76 78 77
3 79 80 78
3 81 82 80
3 83 84 82
3 85 86 84
3 87 88 86
3 88 89 90
3 90 91 92
3 92 93 94
3 93 95 94
3 96 97 95
3 98 99 97
3 100 101 99
3 102 103 101
3 103 104 105
3 104 106 105
3 107 108 106
3 109 110 108
3 111 112 110
3 94 95 113
3 112 114 115
3 114 73 115
3 77 78 113
3 116 117 118
3 110 112 113
3 119 120 121
3 122 123 124
3 125 126 127
3 86 88 113
3 103 105 113
3 128 129 130
3 131 132 133
3 78 80 113
3 95 97 113
3 112 115 113
3 73 72 113
3 121 134 135
3 122 136 137
3 127 138 139
3 140 141 142
3 88 90 113
3 105 106 113
3 128 143 144
3 145 132 146
3 80 82 113
3 97 99 113
3 115 73 113
3 135 147 148
3 137 116 149
3 150 138 141
3 72 75 113
3 90 92 113
3 106 108 113
3 151 142 152
3 144 153 154
3 155 146 156
3 82 84 113
3 99 101 113
3 157 147 158
3 159 116 118
3 75 77 113
3 92 94 113
3 108 110 113
3 151 160 119
3 154 123 161
3 125 156 162
3 84 86 113
3 101 103 113
3 157 129 163
3 159 164 131
3 165 166 167
3 120 168 134
3 146 169 156
3 130 170 171
3 138 172 141
3 124 173 174
3 142 175 152
3 118 176 164
3 134 177 147
3 156 178 162
3 130 179 143
3 124 180 136
3 160 175 181
3 132 176 182
3 158 177 183
3 162 184 126
3 143 185 153
3 136 186 116
3 120 181 187
3 132 188 146
3 129 183 170
3 126 189 138
3 153 173 123
3 141 190 142
3 102 191 192
3 85 193 87
3 111 194 195
3 91 196 93
3 74 197 76
3 100 198 102
3 85 199 200
3 109 201 194
3 91 202 203
3 74 204 205
3 114 206 71
3 98 207 100
3 81 199 83
3 104 201 107
3 89 208 202
3 209 206 204
3 114 210 211
3 96 212 98
3 81 213 214
3 104 191 215
3 216 193 208
3 111 210 217
3 93 218 96
3 76 213 79
3 219 220 167
3 221 222 167
3 223 165 167
3 224 225 167
3 226 219 167
3 227 221 167
3 225 223 167
3 228 224 167
3 229 226 167
3 230 227 167
3 231 228 167
3 232 229 167
3 233 230 167
3 234 231 167
3 235 232 167
3 236 233 167
3 237 234 167
3 238 235 167
3 239 236 167
3 240 237 167
3 166 238 167
3 220 239 167
3 222 240 167
3 0 45 1
3 3 25 4
3 6 241 7
3 9 46 10
3 12 65 13
3 15 242 16
3 13 66 18
3 6 8 20
3 22 47 23
3 25 243 26
3 27 244 28
3 30 41 19
3 32 44 33
3 3 5 35
3 15 17 37
3 27 29 39
3 41 67 42
3 11 10 48
3 44 68 35
3 40 39 50
3 20 45 52
3 22 245 54
3 34 33 55
3 38 37 57
3 31 19 18
3 29 28 60
3 24 23 61
3 9 246 63
3 23 4 26
3 46 63 55
3 12 14 60
3 65 247 66
3 39 47 54
3 30 248 67
3 17 16 48
3 32 249 68
3 2 1 42
3 37 8 7
3 21 20 53
3 0 250 52
3 71 209 72
3 72 209 74
3 75 74 76
3 76 79 78
3 79 81 80
3 81 83 82
3 83 85 84
3 85 87 86
3 87 216 88
3 88 216 89
3 90 89 91
3 92 91 93
3 93 96 95
3 96 98 97
3 98 100 99
3 100 102 101
3 102 192 103
3 103 192 104
3 104 107 106
3 107 109 108
3 109 111 110
3 111 217 112
3 112 217 114
3 114 71 73
3 116 186 117
3 119 160 120
3 122 161 123
3 125 162 126
3 128 163 129
3 131 164 132
3 121 120 134
3 122 124 136
3 127 126 138
3 140 150 141
3 128 130 143
3 145 133 132
3 135 134 147
3 137 136 116
3 150 139 138
3 151 140 142
3 144 143 153
3 155 145 146
3 157 148 147
3 159 149 116
3 151 152 160
3 154 153 123
3 125 155 156
3 157 158 129
3 159 118 164
3 120 187 168
3 146 188 169
3 130 129 170
3 138 189 172
3 124 123 173
3 142 190 175
3 118 117 176
3 134 168 177
3 156 169 178
3 130 171 179
3 124 174 180
3 160 152 175
3 132 164 176
3 158 147 177
3 162 178 184
3 143 179 185
3 136 180 186
3 120 160 181
3 132 182 188
3 129 158 183
3 126 184 189
3 153 185 173
3 141 172 190
3 102 198 191
3 85 200 193
3 111 109 194
3 91 203 196
3 74 205 197
3 100 207 198
3 85 83 199
3 109 107 201
3 91 89 202
3 74 209 204
3 114 211 206
3 98 212 207
3 81 214 199
3 104 215 201
3 89 216 208
3 209 71 206
3 114 217 210
3 96 218 212
3 81 79 213
3 104 192 191
3 216 87 193
3 111 195 210
3 93 196 218
3 76 197 213
